<svg xmlns="http://www.w3.org/2000/svg"
    width="100%"
    height="100%"
    viewBox="0 0 470 277"
    fill="none"
    fill-rule="evenodd"
>
  <path
      stroke="var(--color-fg,#333)"
      stroke-width="4"
      stroke-linecap="round"
      d="M39 2v81m130-28v63m0-63v63m164-30v30m57-55v55M39 267v8m130-63v62m164-62v62m57-62v62"/>
  <path
      fill="var(--color-fg,#333)"
      d="M4 89a4 4 0 00-4 4v116a4 4 0 004 4h69a4 4 0 004-4V93a4 4 0 00-4-4H4zm81 35a4 4 0 00-4 4v75a4 4 0 004 4h49a4 4 0 004-4v-75a4 4 0 00-4-4H85zm57 4a4 4 0 014-4h42.66a4 4 0 014 4v75a4 4 0 01-4 4H146a4 4 0 01-4-4v-75zm59-4a4 4 0 00-4 4v75a4 4 0 004 4h41.98a4 4 0 004-4v-75a4 4 0 00-4-4H201zm50 4a4 4 0 014-4h44.96a4 4 0 014 4v75a4 4 0 01-4 4H255a4 4 0 01-4-4v-75zm61-4a4 4 0 00-4 4v75a4 4 0 004 4h42.56a4 4 0 004-4v-75a4 4 0 00-4-4H312zm51 4a4 4 0 014-4h41.98a4 4 0 014 4v75a4 4 0 01-4 4H367a4 4 0 01-4-4v-75zm58-4a4 4 0 00-4 4v75a4 4 0 004 4h44.29a4 4 0 004-4v-75a4 4 0 00-4-4H421z"/>
  <path
      fill="var(--color-bg,#fff)"
      d="M25.669 195.16c0 1.227-.614 1.84-1.84 1.84H13.84c-1.227 0-1.84-.613-1.84-1.84v-88.32c0-1.227.613-1.84 1.84-1.84h14.851c1.14 0 1.84.526 2.103 1.577l7.229 35.354c.175.439.416.658.723.658.306 0 .503-.219.591-.658l7.36-35.354c.263-1.051.964-1.577 2.103-1.577h14.063c1.227 0 1.84.613 1.84 1.84v88.32c0 1.227-.614 1.84-1.84 1.84H48.93c-1.226 0-1.84-.613-1.84-1.84v-35.88c0-.438-.153-.679-.46-.723-.306-.044-.547.153-.722.592l-5.652 19.057c-.263 1.051-.92 1.577-1.971 1.577H34.21c-1.051 0-1.708-.526-1.971-1.577l-5.389-19.452c-.087-.438-.306-.635-.657-.591-.35.044-.525.285-.525.723v36.274z"/>
  <path
      fill="var(--color-bg,#fff)"
      fill-rule="evenodd"
      clip-rule="evenodd"
      d="M97.47 199.2c.831 0 1.343-.384 1.535-1.152l1.92-9.024c.128-.448.384-.672.768-.672h11.904c.384 0 .64.224.768.672l1.824 8.928c.192.832.672 1.248 1.44 1.248h11.424c.384 0 .688-.112.912-.336a1.11 1.11 0 00.336-.816v-.288l-13.728-64.608c-.192-.768-.704-1.152-1.536-1.152h-10.944c-.832 0-1.344.384-1.536 1.152L89.021 197.76c-.064.448.016.8.24 1.056.224.256.56.384 1.008.384h7.2zm14.015-20.832h-7.584c-.448 0-.672-.224-.672-.672v-.192l4.128-19.872c.128-.32.304-.48.528-.48.224 0 .368.16.432.48l3.84 19.872c.128.576-.096.864-.672.864zm51.955 19.488c0 .896-.448 1.344-1.344 1.344h-10.752c-.896 0-1.344-.448-1.344-1.344v-64.512c0-.896.448-1.344 1.344-1.344h25.248c2.24 0 4.144.752 5.712 2.256 1.568 1.504 2.352 3.376 2.352 5.616v32.352c0 2.304-.352 4.128-1.056 5.472-.704 1.344-1.92 2.144-3.648 2.4-.576 0-.768.288-.576.864l5.088 16.704c.064.128.096.288.096.48 0 .32-.112.576-.336.768-.224.192-.528.288-.912.288h-9.216c-.832 0-1.344-.384-1.536-1.152l-5.184-17.28c-.128-.448-.416-.672-.864-.672h-2.304c-.512 0-.768.256-.768.768v16.992zm.768-27.84h6.336c1.024 0 1.76-.224 2.208-.672.448-.448.672-1.184.672-2.208v-20.16c0-1.024-.224-1.76-.672-2.208-.448-.448-1.184-.672-2.208-.672h-6.336c-.512 0-.768.256-.768.768v24.384c0 .512.256.768.768.768z"/>
  <path
      fill="var(--color-bg,#fff)"
      d="M237.016 197.232c-1.312 1.312-3.216 1.968-5.712 1.968H212.68c-2.496 0-4.4-.656-5.712-1.968-1.312-1.312-1.968-3.216-1.968-5.712v-51.84c0-2.496.656-4.4 1.968-5.712 1.312-1.312 3.216-1.968 5.712-1.968h18.624c2.496 0 4.4.656 5.712 1.968 1.312 1.312 1.968 3.216 1.968 5.712v11.616c0 .896-.448 1.344-1.344 1.344h-7.488c-.896 0-1.344-.448-1.344-1.344v-6.24c0-.896-.256-1.6-.768-2.112s-1.216-.768-2.112-.768h-4.512c-.896 0-1.6.256-2.112.768s-.768 1.216-.768 2.112v41.28c0 .896.256 1.6.768 2.112s1.216.768 2.112.768h4.512c.896 0 1.6-.256 2.112-.768s.768-1.216.768-2.112v-6.432c0-.896.448-1.344 1.344-1.344h7.488c.896 0 1.344.448 1.344 1.344v11.616c0 2.496-.656 4.4-1.968 5.712zm34.08 1.968c.896 0 1.344-.448 1.344-1.344v-17.088c0-.512.256-.768.768-.768h8.544c.512 0 .768.256.768.768v17.088c0 .896.448 1.344 1.344 1.344h10.752c.896 0 1.344-.448 1.344-1.344v-64.512c0-.896-.448-1.344-1.344-1.344h-10.752c-.896 0-1.344.448-1.344 1.344v35.904c0 .512-.256.768-.768.768h-8.544c-.512 0-.768-.256-.768-.768v-35.904c0-.896-.448-1.344-1.344-1.344h-10.752c-.896 0-1.344.448-1.344 1.344v64.512c0 .896.448 1.344 1.344 1.344h10.752z"/>
  <path
      fill="var(--color-bg,#fff)"
      fill-rule="evenodd"
      clip-rule="evenodd"
      d="M348.496 196.992c-1.376 1.472-3.184 2.208-5.424 2.208h-25.728c-.896 0-1.344-.448-1.344-1.344v-64.512c0-.896.448-1.344 1.344-1.344h25.536c2.496 0 4.4.656 5.712 1.968 1.312 1.312 1.968 3.216 1.968 5.712v13.536c0 2.88-.864 5.184-2.592 6.912-.32.32-.32.64 0 .96 1.728 1.536 2.592 3.872 2.592 7.008v23.232c0 2.304-.688 4.192-2.064 5.664zM330.4 155.904h6.144c.896 0 1.664-.352 2.304-1.056.64-.704.96-1.504.96-2.4v-6.912c0-.96-.32-1.776-.96-2.448-.64-.672-1.408-1.008-2.304-1.008H330.4c-.512 0-.768.256-.768.768v12.288c0 .512.256.768.768.768zm6.144 33.504h-6.432c-.512 0-.768-.256-.768-.768v-22.08c0-.512.256-.768.768-.768h6.432c1.984 0 2.976.96 2.976 2.88v17.856c0 1.92-.992 2.88-2.976 2.88zm66.472 7.824c-1.312 1.312-3.216 1.968-5.712 1.968H378.68c-2.496 0-4.4-.656-5.712-1.968-1.312-1.312-1.968-3.216-1.968-5.712v-51.84c0-2.496.656-4.4 1.968-5.712 1.312-1.312 3.216-1.968 5.712-1.968h18.624c2.496 0 4.4.656 5.712 1.968 1.312 1.312 1.968 3.216 1.968 5.712v51.84c0 2.496-.656 4.4-1.968 5.712zm-15.6-8.016h4.512c.896 0 1.6-.256 2.112-.768s.768-1.216.768-2.112v-41.28c0-.896-.256-1.6-.768-2.112s-1.216-.768-2.112-.768h-4.512c-.896 0-1.6.256-2.112.768s-.768 1.216-.768 2.112v41.28c0 .896.256 1.6.768 2.112s1.216.768 2.112.768z"/>
  <path
      fill="var(--color-bg,#fff)"
      d="M438.248 197.856c0 .896-.448 1.344-1.344 1.344h-9.6c-.896 0-1.344-.448-1.344-1.344-.192-12.608 1.408-22.848 4.8-30.72.128-.448.096-.8-.096-1.056-3.776-7.616-5.664-17.504-5.664-29.664v-3.072c0-.896.448-1.344 1.344-1.344h9.6c.896 0 1.344.448 1.344 1.344v3.456c0 3.84.32 7.552.96 11.136.64 3.584 1.92 6.88 3.84 9.888.384.576.768.576 1.152 0 1.92-3.008 3.2-6.304 3.84-9.888.64-3.584.96-7.296.96-11.136v-3.456c0-.896.448-1.344 1.344-1.344h9.6c.896 0 1.344.16 1.344.48v2.976c0 11.776-1.6 21.312-4.8 28.608-.128.448-.096.8.096 1.056 3.776 7.616 5.664 17.504 5.664 29.664v3.072c0 .896-.448 1.344-1.344 1.344h-9.6c-.896 0-1.344-.448-1.344-1.344V194.4c0-3.84-.32-7.552-.96-11.136-.64-3.584-1.92-6.88-3.84-9.888-.384-.576-.768-.576-1.152 0-1.92 3.008-3.2 6.304-3.84 9.888-.64 3.584-.96 7.296-.96 11.136v3.456z"/>
  <rect
      fill="var(--color-bg,#fff)"
      stroke="var(--color-fg,#333)"
      stroke-width="4"
      x="6" y="222" width="450" height="37" rx="2"/>
  <path
      fill="var(--color-fg,#333)"
      d="M45 3.446v23.268l.001.033.001.028v.001l.003.046v.005l.002.018.003.026.004.044.004.027.003.021a1.894 1.894 0 00.036.18v.002l.025.088.007.023.007.022.031.087.001.002c.01.027.022.053.037.087l.004.01.013.029.02.041.003.005.006.012.014.026.02.035.005.01.007.013.014.024.021.034.002.002.004.006.01.015.011.018.002.004.023.033.001.002.004.005.012.017.012.016.002.003.026.034.018.023.011.014.003.002c.018.023.037.045.056.066l.004.005a1.934 1.934 0 00.13.13l.002.002.07.06.02.015.018.015.036.027.023.017.012.008.003.003.003.001c.023.017.047.032.07.048l.005.002.004.003.011.007.024.015h.002c.011.008.023.014.038.023l.007.003.014.009.013.007.007.003.01.005.03.016.005.003.023.011.03.014.027.012.04.017.002.001.004.002.017.007.024.01.042.015.026.009.02.006a1.768 1.768 0 00.175.05l.022.004.025.005.045.009.025.004.024.003a.318.318 0 00.043.006l.028.004.023.002.043.004.03.002h.022a.295.295 0 00.042.002h.042l.005.001h39.628a1.899 1.899 0 001.075-3.465L70.069 15.08 87.602 5.045a1.9 1.9 0 00-1.075-3.465H46.852l-.047.002H46.8l-.013.001-.03.002-.05.005-.015.001-.028.004-.048.006-.02.003-.024.005-.045.008-.025.005-.022.005a2.185 2.185 0 00-.176.049l-.02.006-.025.01c-.014.004-.028.01-.044.016h-.003l-.019.008-.017.007-.004.002h-.002l-.01.005-.03.013-.027.012-.015.007-.005.002-.01.005-.027.014h-.001l-.036.019-.004.002-.007.003-.013.007-.014.009-.01.005-.035.02-.007.004-.019.012-.01.007-.005.003-.004.002a1.69 1.69 0 00-.071.048l-.003.001-.003.003-.012.008-.023.017a2.218 2.218 0 00-.036.027l-.019.015-.019.015-.07.06-.001.002a1.653 1.653 0 00-.133.133l-.002.002a1.215 1.215 0 00-.056.066l-.006.006-.008.01-.018.024-.026.033-.006.008-.008.01-.012.018-.004.005v.002a1.43 1.43 0 00-.023.033l-.007.01-.008.012-.013.02-.002.003a1.822 1.822 0 00-.023.037l-.003.006-.009.015-.01.02-.003.003a1.533 1.533 0 00-.02.037l-.003.005-.01.019-.006.012-.005.01a1.224 1.224 0 00-.018.037l-.013.027-.008.019a1.923 1.923 0 00-.033.08l-.002.004-.03.084-.007.022-.007.023a1.996 1.996 0 00-.024.088l-.001.002a2.065 2.065 0 00-.037.185l-.002.016-.004.028-.005.045v.005l-.002.02-.001.017v.008a1.653 1.653 0 00-.004.044v.028L45 3.432v.015zm130 53.42v15.268l.001.033.001.028v.001l.003.046.001.005.001.018.002.02.001.006.002.02.003.023.003.028.003.021a2.144 2.144 0 00.037.18l.001.002.011.044.013.044.008.023.007.022.031.087.001.002.037.087.005.01.013.028.01.021.011.02.002.006.007.012.01.02.003.006.02.035.006.01.007.013.015.024.021.034.002.002.004.007.009.014.012.019.003.003a.619.619 0 00.023.033l.001.002.003.005.013.017.012.016.002.003a.34.34 0 00.019.024l.007.01.019.023.011.013.003.003c.018.023.038.045.057.066l.004.005.066.067c.015.016.032.031.048.046l.019.017.002.002.071.06.019.015.019.015c.012.01.024.018.037.027l.023.017.012.008.003.003.003.001.031.021.041.027.004.002.005.003.011.007.024.015h.002l.039.023.006.003.015.009.013.007.007.003.01.005.031.016.005.003.024.011.03.014.028.013.04.016.002.001.004.002.017.007.025.01.042.015.026.009.02.006a1.86 1.86 0 00.179.05l.022.004.026.005.013.003.032.006.025.004.025.003a.332.332 0 00.044.006l.028.004.023.002.044.004.03.002h.023c.014.002.028.002.043.002h.042l.006.001h32.14c.846 0 1.593-.542 1.843-1.337a1.883 1.883 0 00-.751-2.128L196.41 64.5l13.752-6.035a1.883 1.883 0 00.751-2.128A1.926 1.926 0 00209.07 55h-32.188l-.021.001-.027.001h-.005l-.013.001-.03.002-.051.005-.016.001-.028.004-.021.002-.028.004-.02.003-.025.005-.024.004-.021.004-.026.005-.022.005a2.55 2.55 0 00-.139.036l-.04.013-.02.006-.026.01-.024.008-.02.008h-.003l-.02.008-.017.007-.004.002h-.002l-.011.005-.029.013-.028.012-.016.007-.005.002-.009.005-.028.014h-.001l-.037.019-.004.002-.007.003-.013.007-.015.009-.009.005-.036.02-.007.004-.019.012-.011.007-.005.003-.004.002a1.598 1.598 0 00-.072.048l-.003.001-.003.003-.012.008-.023.017a.847.847 0 00-.037.027l-.019.015-.019.015a1.206 1.206 0 00-.047.039l-.024.021-.002.002-.035.032-.015.014-.02.02a3.398 3.398 0 00-.065.067l-.002.002c-.019.021-.039.043-.057.066l-.006.006-.008.01-.019.024-.008.01-.018.023-.006.008-.008.01-.013.018-.003.005-.001.002a.583.583 0 00-.023.033l-.007.01-.008.012-.013.02-.002.003-.012.02-.011.017-.004.006-.009.015-.011.02-.002.003-.013.024-.008.013-.012.024-.007.012-.004.009a.556.556 0 00-.019.038l-.013.027-.008.019a2.086 2.086 0 00-.034.08l-.002.004-.015.041-.015.043-.007.022-.008.023-.016.055-.008.033-.001.002a3.07 3.07 0 00-.037.185l-.003.016-.003.028-.006.045v.005l-.002.02-.001.017-.001.008-.003.044v.005l-.001.023v.024l-.001.01zM339 89.9v-.034l.001-.009v-.024l.001-.023v-.005l.003-.044.001-.008.001-.018.002-.02v-.004l.003-.027.003-.018.003-.028.003-.016.006-.041.01-.052a3.07 3.07 0 01.021-.092l.001-.002c.007-.03.015-.059.024-.088l.008-.023.007-.022a.499.499 0 01.013-.036l.017-.048.002-.005.034-.08.008-.018.013-.027a.556.556 0 01.019-.038l.004-.009.007-.012.01-.02.002-.004.011-.019.01-.018.002-.004.011-.019.009-.015.004-.006.023-.037.002-.002.013-.021.008-.012.007-.01.014-.02.009-.013.001-.002.003-.005.013-.017.008-.01.006-.01.026-.032.019-.024.008-.01.006-.007.009-.01.048-.056.002-.001.038-.04.027-.028.07-.065.002-.002.071-.06.019-.015.019-.015.024-.018.013-.01.023-.016.012-.008.003-.003.003-.001a.696.696 0 01.034-.023l.019-.013.019-.012.004-.002.005-.003.011-.007.019-.012.007-.004.036-.02.009-.005.015-.009.013-.007.007-.003.023-.012.018-.009h.001l.028-.014.009-.004.005-.003.016-.007.028-.012.03-.013.01-.005h.002l.021-.009.02-.008h.003l.024-.01.02-.007.026-.009.02-.006a1.914 1.914 0 01.179-.05l.022-.004.026-.005.045-.009.025-.004.02-.003.049-.006.028-.004.016-.001.051-.005.03-.002h.018c.019-.002.033-.002.048-.002l.031-.001h32.157c.846 0 1.593.542 1.843 1.337a1.883 1.883 0 01-.751 2.128L360.41 97.5l13.752 6.035a1.883 1.883 0 01.751 2.128A1.926 1.926 0 01373.07 107h-32.157l-.031-.001-.043-.001-.01-.001h-.013l-.03-.002-.044-.004-.023-.002-.028-.004-.034-.004-.01-.002-.025-.003-.025-.004-.045-.009-.026-.005-.022-.005-.026-.006a1.412 1.412 0 01-.153-.043l-.02-.006-.026-.009-.024-.009-.018-.007-.025-.009-.017-.007-.004-.002-.002-.001-.02-.008-.02-.009-.028-.012-.03-.014-.023-.011-.006-.003a.301.301 0 01-.031-.016l-.01-.005-.007-.003-.013-.007-.015-.009-.006-.003-.019-.011-.02-.011-.002-.001-.024-.015-.011-.007-.005-.003-.004-.002a1.125 1.125 0 01-.072-.048l-.003-.001-.003-.003-.012-.008-.023-.017-.037-.027-.019-.015-.019-.015a1.417 1.417 0 01-.071-.061l-.002-.001a.998.998 0 01-.067-.063l-.066-.067-.004-.005c-.019-.021-.039-.043-.057-.066l-.003-.003-.011-.013-.019-.024-.011-.014-.015-.019-.002-.003-.012-.016-.013-.017-.003-.005-.001-.002a.657.657 0 01-.023-.033l-.003-.004-.012-.018-.009-.014-.004-.007-.002-.002-.021-.034-.015-.024-.007-.013-.006-.01-.011-.019-.009-.016-.003-.007-.01-.019-.007-.012-.002-.005a.546.546 0 01-.021-.042l-.013-.027-.005-.011-.011-.025-.007-.016-.019-.046-.001-.002-.015-.042-.016-.045-.007-.022-.008-.023a1.265 1.265 0 01-.024-.088l-.001-.002a2.784 2.784 0 01-.02-.088l-.01-.052-.007-.04-.003-.021-.003-.028a.63.63 0 01-.005-.043l-.001-.007-.002-.019-.001-.018-.001-.005-.001-.026-.002-.02v-.001l-.001-.028v-.013l-.001-.02V89.899zm57-25.034v15.268l.001.02v.013l.001.028v.001l.002.027.001.019.001.005.001.018.002.02.001.006.005.044.003.027.003.021a2.144 2.144 0 00.037.18l.001.002c.007.03.015.059.024.088l.008.023.007.022.031.087.001.002.037.087.005.01.013.028a.713.713 0 00.021.042l.002.005.007.012.01.02.003.006a.29.29 0 01.013.023l.007.012.006.01.007.013.015.024.021.034.002.002.004.007.009.014.012.019.003.003a.619.619 0 00.023.033l.001.002.003.005.013.017.012.016.002.003.026.033.019.024.011.013.003.003c.018.023.038.045.057.066l.004.005a2.403 2.403 0 00.133.13l.002.002.071.06.019.015.019.015c.012.01.024.018.037.027l.023.017.012.008.003.003.003.001c.023.017.048.032.072.048l.004.002.005.003.011.007.024.015h.002l.018.01.021.013.006.003.015.009.013.007.007.003.01.005.031.016.006.003.023.011.03.014.028.013.04.016.002.001.004.002.017.007.025.01.042.015.026.009.02.006a1.86 1.86 0 00.179.05l.022.004.026.005.045.009.025.004.025.003a.332.332 0 00.044.006l.028.004.023.002.044.004.03.002h.023c.014.002.028.002.043.002h.042l.006.001h32.14c.846 0 1.593-.542 1.843-1.337a1.883 1.883 0 00-.751-2.128L417.41 72.5l13.752-6.035a1.883 1.883 0 00.751-2.128A1.926 1.926 0 00430.07 63h-32.188l-.048.002h-.005l-.013.001-.03.002-.032.003-.019.002-.016.001-.028.004-.049.006-.02.003-.025.005-.027.004-.018.004-.026.005-.022.005a2.55 2.55 0 00-.179.049l-.02.006-.026.01-.044.015-.003.001-.02.008-.017.007-.004.002h-.002l-.022.01a1.415 1.415 0 00-.018.008l-.028.012-.016.007-.005.002-.009.005-.028.014h-.001l-.037.019-.004.002-.007.003-.013.007-.015.009-.009.005-.036.02-.007.004-.019.012-.011.007-.005.003-.004.002a.952.952 0 00-.072.048l-.003.001-.003.003-.012.008-.023.017a.847.847 0 00-.037.027l-.019.015-.019.015-.071.06-.002.002-.043.04a3.398 3.398 0 00-.092.093l-.002.002c-.019.021-.039.043-.057.066l-.006.006-.008.01-.019.024a.307.307 0 01-.016.02l-.01.013-.006.008-.008.01-.013.018-.003.005-.001.002a.583.583 0 00-.023.033l-.007.01-.008.012-.013.02-.002.003a.602.602 0 00-.012.019l-.011.018-.004.006-.009.015-.011.02-.002.003-.021.037-.002.005-.01.019-.007.012-.004.009-.015.03-.004.008-.013.027-.008.019a2.086 2.086 0 00-.034.08l-.002.004-.03.084-.007.022-.008.023a1.318 1.318 0 00-.024.088l-.001.002-.013.053-.008.039a1.497 1.497 0 00-.016.093l-.003.016-.003.028-.006.045v.005l-.002.02-.001.017-.001.008-.003.044v.004l-.001.024v.024l-.001.01zM31.736 251c-.243 0-.485-.308-.728-.924-.243-.616-.364-1.139-.364-1.568 0-.149.01-.243.028-.28l7.112-13.16h-5.74c-.28 0-.485-.112-.616-.336-.112-.224-.168-.579-.168-1.064v-.868c0-.485.056-.84.168-1.064.13-.224.336-.336.616-.336h10.22c.224 0 .448.327.672.98.243.635.364 1.167.364 1.596 0 .187-.028.336-.084.448l-6.972 12.908h6.3c.28 0 .485.112.616.336.13.224.196.579.196 1.064v.868c0 .485-.065.84-.196 1.064-.13.224-.336.336-.616.336H31.736zm14.079.056c-.896 0-1.344-.205-1.344-.616 0-.149.028-.317.084-.504l4.312-17.808c.131-.523.7-.784 1.708-.784h1.82c1.027 0 1.606.261 1.736.784l4.313 17.808c.037.261.055.429.055.504 0 .411-.4.616-1.204.616h-1.484c-.896 0-1.39-.196-1.484-.588l-.728-3.416h-4.256l-.756 3.416c-.074.392-.513.588-1.316.588h-1.456zm7.308-7.42l-1.26-5.936a31.928 31.928 0 01-.336-2.128h-.14a31.799 31.799 0 01-.336 2.128l-1.232 5.936h3.304zm14.165 7.588c-2.613 0-4.517-.803-5.712-2.408-1.176-1.624-1.764-4.181-1.764-7.672 0-3.36.616-5.861 1.848-7.504 1.25-1.643 3.174-2.464 5.768-2.464.877 0 1.69.103 2.436.308.579.168.868.569.868 1.204 0 .709-.13 1.344-.392 1.904-.243.56-.55.775-.924.644a5.97 5.97 0 00-1.792-.28c-1.12 0-1.96.513-2.52 1.54-.541 1.027-.812 2.585-.812 4.676s.27 3.659.812 4.704c.56 1.027 1.447 1.54 2.66 1.54.355 0 .654-.019.896-.056.243-.056.56-.14.952-.252a.838.838 0 01.252-.028c.373 0 .653.233.84.7.187.467.28 1.083.28 1.848 0 .28-.056.523-.168.728-.112.187-.326.336-.644.448-.317.112-.737.205-1.26.28a9.255 9.255 0 01-1.624.14zm7.7-.168c-1.083 0-1.624-.299-1.624-.896v-17.92c0-.597.541-.896 1.624-.896h1.12c1.101 0 1.652.299 1.652.896v8.344l.112.028 3.78-8.736a.765.765 0 01.476-.42c.224-.075.541-.112.952-.112h1.54c1.026 0 1.54.14 1.54.42 0 .131-.056.327-.168.588l-4.34 8.652 4.648 9.044c.112.205.168.401.168.588 0 .28-.486.42-1.456.42h-1.848c-.43 0-.766-.037-1.008-.112a.77.77 0 01-.504-.42l-3.808-8.792-.084.028v8.4c0 .597-.55.896-1.652.896h-1.12zm17.633 0c-1.101 0-1.652-.299-1.652-.896v-7.616l-4.312-9.94-.168-.336a1.33 1.33 0 01-.084-.364c0-.168.14-.299.42-.392.299-.112.719-.168 1.26-.168h1.428c.915 0 1.428.177 1.54.532l2.184 6.888 2.156-6.888c.056-.205.215-.345.476-.42.261-.075.616-.112 1.064-.112h1.176c1.176 0 1.764.187 1.764.56 0 .187-.065.42-.196.7l-4.312 10.024v7.532c0 .597-.55.896-1.652.896h-1.092zm18.231.168c-1.867 0-3.286-.644-4.256-1.932-.971-1.307-1.456-3.183-1.456-5.628 0-2.445.476-4.312 1.428-5.6.97-1.288 2.398-1.932 4.284-1.932 1.885 0 3.313.644 4.284 1.932.97 1.288 1.456 3.155 1.456 5.6s-.486 4.321-1.456 5.628c-.971 1.288-2.399 1.932-4.284 1.932zm.028-3.276c.541 0 .924-.317 1.148-.952.242-.653.364-1.764.364-3.332 0-1.568-.122-2.669-.364-3.304-.224-.635-.607-.952-1.148-.952-.56 0-.962.317-1.204.952-.224.635-.336 1.736-.336 3.304 0 1.568.112 2.679.336 3.332.242.635.644.952 1.204.952zm9.872 3.108c-1.064 0-1.596-.299-1.596-.896v-8.932c0-1.325-.047-2.268-.14-2.828-.094-.56-.14-.905-.14-1.036 0-.336.392-.579 1.176-.728.784-.168 1.465-.252 2.044-.252.354 0 .588.103.7.308.112.205.186.476.224.812.056.317.102.569.14.756.41-.616.924-1.12 1.54-1.512a3.83 3.83 0 012.128-.616c1.026 0 1.801.336 2.324 1.008.541.653.812 1.615.812 2.884v10.136c0 .597-.542.896-1.624.896h-.952c-1.083 0-1.624-.299-1.624-.896v-9.184c0-.485-.075-.84-.224-1.064-.15-.243-.42-.364-.812-.364-.504 0-.971.299-1.4.896v9.716a.727.727 0 01-.392.672c-.262.149-.663.224-1.204.224h-.98zm19.939 0c-.429 0-.746-.047-.952-.14a.592.592 0 01-.364-.448l-3.668-17.976a.954.954 0 01-.028-.224c.019-.093.028-.159.028-.196 0-.485.551-.728 1.652-.728h.812c1.12 0 1.718.289 1.792.868l1.316 10.332c.262 2.203.411 3.603.448 4.2h.112c.112-.989.308-2.389.588-4.2l1.708-10.612c.038-.224.15-.373.336-.448.206-.093.532-.14.98-.14h1.4c.448 0 .766.047.952.14a.536.536 0 01.364.448l1.68 10.612c.206 1.251.392 2.679.56 4.284h.112c.056-.84.224-2.268.504-4.284l1.344-10.332c.075-.579.672-.868 1.792-.868h.644c1.102 0 1.652.243 1.652.728 0 .168-.009.308-.028.42l-3.724 17.976c-.074.392-.513.588-1.316.588h-1.848c-.746 0-1.166-.196-1.26-.588l-1.68-8.764a22.864 22.864 0 01-.336-2.24 43.726 43.726 0 01-.14-2.436h-.112a24.935 24.935 0 01-.196 2.492 24.37 24.37 0 01-.308 2.184l-1.708 8.764c-.074.392-.494.588-1.26.588h-1.848zm18.787-.056c-.355 0-.616-.084-.784-.252-.168-.187-.252-.476-.252-.868v-17.36c0-.392.084-.672.252-.84.168-.187.429-.28.784-.28h8.26c.28 0 .486.112.616.336.131.224.196.579.196 1.064v.868c0 .485-.065.84-.196 1.064-.13.224-.336.336-.616.336h-4.928v4.06h4.368c.28 0 .485.112.616.336.131.224.196.579.196 1.064v.868c0 .485-.065.84-.196 1.064-.131.224-.336.336-.616.336h-4.368v4.536h4.956c.28 0 .476.112.588.336.131.224.196.579.196 1.064v.868c0 .485-.065.84-.196 1.064-.112.224-.308.336-.588.336h-8.288zm12.993 0c-.355 0-.616-.084-.784-.252-.168-.187-.252-.476-.252-.868v-17.388c0-.373.084-.644.252-.812.168-.187.429-.28.784-.28h5.012c3.92 0 5.88 1.577 5.88 4.732 0 2.091-.84 3.631-2.52 4.62l.028.112c.952.28 1.699.821 2.24 1.624.541.803.812 1.801.812 2.996 0 1.661-.541 2.996-1.624 4.004-1.064 1.008-2.641 1.512-4.732 1.512h-5.096zm5.04-11.62c.597 0 1.036-.187 1.316-.56.299-.392.448-.999.448-1.82 0-.803-.14-1.372-.42-1.708-.261-.355-.691-.532-1.288-.532h-1.988v4.62h1.932zm.196 8.232c.691 0 1.195-.196 1.512-.588.336-.392.504-1.036.504-1.932 0-.859-.159-1.465-.476-1.82-.317-.373-.831-.56-1.54-.56h-2.128v4.9h2.128zM191.841 251c-.355 0-.616-.084-.784-.252-.168-.187-.252-.476-.252-.868v-17.36c0-.392.084-.672.252-.84.168-.187.429-.28.784-.28h5.32c2.427 0 4.209.812 5.348 2.436 1.157 1.624 1.736 4.079 1.736 7.364s-.579 5.74-1.736 7.364c-1.139 1.624-2.921 2.436-5.348 2.436h-5.32zm5.18-3.668c.989 0 1.699-.457 2.128-1.372.429-.933.644-2.52.644-4.76 0-2.24-.215-3.817-.644-4.732-.429-.933-1.139-1.4-2.128-1.4h-1.792v12.264h1.792zM208.198 251c-.354 0-.616-.084-.784-.252-.168-.187-.252-.476-.252-.868v-17.36c0-.392.084-.672.252-.84.168-.187.43-.28.784-.28h8.26c.28 0 .486.112.616.336.131.224.196.579.196 1.064v.868c0 .485-.065.84-.196 1.064-.13.224-.336.336-.616.336h-4.928v4.06h4.368c.28 0 .486.112.616.336.131.224.196.579.196 1.064v.868c0 .485-.065.84-.196 1.064-.13.224-.336.336-.616.336h-4.368v4.536h4.956c.28 0 .476.112.588.336.131.224.196.579.196 1.064v.868c0 .485-.065.84-.196 1.064-.112.224-.308.336-.588.336h-8.288zm16.129.224a9.67 9.67 0 01-2.716-.392c-.896-.28-1.549-.653-1.96-1.12-.242-.336-.364-.663-.364-.98 0-.523.14-1.055.42-1.596.28-.541.588-.812.924-.812.15 0 .383.093.7.28.336.187.579.317.728.392.728.373 1.372.56 1.932.56.598 0 1.12-.14 1.568-.42.448-.28.672-.756.672-1.428 0-.709-.214-1.26-.644-1.652-.429-.411-1.101-.859-2.016-1.344-1.4-.803-2.426-1.633-3.08-2.492-.634-.859-.952-1.997-.952-3.416 0-1.139.252-2.128.756-2.968a4.99 4.99 0 012.072-1.96c.896-.467 1.914-.7 3.052-.7.635 0 1.307.103 2.016.308.71.187 1.26.42 1.652.7.336.243.504.569.504.98 0 .485-.112.999-.336 1.54-.205.541-.466.812-.784.812-.149 0-.42-.075-.812-.224-.728-.28-1.334-.42-1.82-.42-.784 0-1.325.168-1.624.504-.28.336-.42.719-.42 1.148 0 .672.178 1.185.532 1.54.355.336.924.709 1.708 1.12.168.075.42.205.756.392 1.288.747 2.212 1.549 2.772 2.408.579.859.868 1.988.868 3.388a6.421 6.421 0 01-.672 2.912c-.448.877-1.129 1.587-2.044 2.128-.914.541-2.044.812-3.388.812zm9.759-.14c-1.083 0-1.624-.308-1.624-.924v-17.92c0-.616.541-.924 1.624-.924h1.176c1.064 0 1.596.308 1.596.924v17.92c0 .616-.532.924-1.596.924h-1.176zm17.492-11.564c.355 0 .616.093.784.28.168.168.252.448.252.84v8.344c0 .429-.289.821-.868 1.176-.56.336-1.26.597-2.1.784-.84.187-1.643.28-2.408.28-2.613 0-4.545-.812-5.796-2.436-1.232-1.643-1.848-4.191-1.848-7.644 0-3.36.625-5.861 1.876-7.504 1.251-1.643 3.192-2.464 5.824-2.464.84 0 1.652.103 2.436.308.784.187 1.419.439 1.904.756.485.299.728.607.728.924 0 .243-.103.569-.308.98a4.37 4.37 0 01-.7 1.092c-.28.299-.532.448-.756.448-.075 0-.271-.065-.588-.196a5.464 5.464 0 00-1.064-.364c-.392-.112-.859-.168-1.4-.168-1.195 0-2.072.504-2.632 1.512s-.84 2.576-.84 4.704c0 2.277.261 3.892.784 4.844.541.933 1.335 1.4 2.38 1.4a5.06 5.06 0 001.148-.112v-4.088h-1.428c-.28 0-.485-.112-.616-.336-.131-.224-.196-.579-.196-1.064v-.896c0-.485.065-.84.196-1.064.131-.224.336-.336.616-.336h4.62zm5.733 11.536c-1.082 0-1.624-.299-1.624-.896v-17.92c0-.597.542-.896 1.624-.896h.728c.374 0 .672.056.896.168.224.093.411.299.56.616l5.04 9.128c.262.485.579 1.213.952 2.184l.112-.056c-.149-.971-.224-1.708-.224-2.212v-8.932c0-.597.542-.896 1.624-.896h.672c1.083 0 1.624.299 1.624.896v17.92c0 .597-.541.896-1.624.896h-.532c-.373 0-.681-.047-.924-.14-.242-.112-.438-.327-.588-.644l-5.348-9.52c-.168-.28-.42-.877-.756-1.792l-.14.084c.15.859.224 1.493.224 1.904v9.212c0 .597-.541.896-1.624.896h-.672zm14.78 3.444c-.299 0-.579-.056-.84-.168-.261-.093-.392-.243-.392-.448 0-.093.028-.233.084-.42.037-.187.065-.355.084-.504l.168-.56c.205-.672.364-1.344.476-2.016.131-.672.196-1.493.196-2.464 0-.821.541-1.232 1.624-1.232h.56c.56 0 .971.112 1.232.336.261.224.392.523.392.896 0 .989-.215 1.997-.644 3.024-.411 1.008-.905 1.848-1.484 2.52-.579.691-1.064 1.036-1.456 1.036zm11.065-3.5c-.354 0-.616-.084-.784-.252-.168-.187-.252-.476-.252-.868v-17.64c0-.597.542-.896 1.624-.896h1.12c1.083 0 1.624.299 1.624.896v15.092h4.172c.299 0 .514.112.644.336.131.224.196.579.196 1.064v.868c0 .485-.065.84-.196 1.064-.13.224-.345.336-.644.336h-7.504zm11.829.084c-1.083 0-1.624-.308-1.624-.924v-17.92c0-.616.541-.924 1.624-.924h1.176c1.064 0 1.596.308 1.596.924v17.92c0 .616-.532.924-1.596.924h-1.176zm7.692-.028c-1.083 0-1.624-.299-1.624-.896v-17.64c0-.392.084-.672.252-.84.168-.187.429-.28.784-.28h7.7c.28 0 .485.112.616.336.13.224.196.579.196 1.064v.868c0 .485-.066.84-.196 1.064-.131.224-.336.336-.616.336h-4.368v4.648h4.116c.28 0 .485.112.616.336.13.224.196.579.196 1.064v.868c0 .485-.066.84-.196 1.064-.131.224-.336.336-.616.336h-4.116v6.776c0 .597-.542.896-1.624.896h-1.12zm11.504-.056c-.355 0-.616-.084-.784-.252-.168-.187-.252-.476-.252-.868v-17.36c0-.392.084-.672.252-.84.168-.187.429-.28.784-.28h8.26c.28 0 .485.112.616.336.13.224.196.579.196 1.064v.868c0 .485-.066.84-.196 1.064-.131.224-.336.336-.616.336h-4.928v4.06h4.368c.28 0 .485.112.616.336.13.224.196.579.196 1.064v.868c0 .485-.066.84-.196 1.064-.131.224-.336.336-.616.336h-4.368v4.536h4.956c.28 0 .476.112.588.336.13.224.196.579.196 1.064v.868c0 .485-.066.84-.196 1.064-.112.224-.308.336-.588.336h-8.288zm11.48 3.5c-.298 0-.578-.056-.84-.168-.261-.093-.392-.243-.392-.448 0-.093.028-.233.084-.42.038-.187.066-.355.084-.504l.168-.56a15.65 15.65 0 00.476-2.016c.131-.672.196-1.493.196-2.464 0-.821.542-1.232 1.624-1.232h.56c.56 0 .971.112 1.232.336.262.224.392.523.392.896 0 .989-.214 1.997-.644 3.024-.41 1.008-.905 1.848-1.484 2.52-.578.691-1.064 1.036-1.456 1.036zm22.182-6.664c.224 0 .411.28.56.84.168.541.252.933.252 1.176 0 .915-.821 1.372-2.464 1.372-.635 0-1.148-.084-1.54-.252a2.623 2.623 0 01-1.008-.868c-.84.429-1.549.728-2.128.896-.579.149-1.297.224-2.156.224-1.699 0-2.977-.513-3.836-1.54-.859-1.027-1.288-2.492-1.288-4.396 0-1.288.168-2.343.504-3.164.355-.84 1.008-1.456 1.96-1.848v-.112c-.635-.336-1.12-.859-1.456-1.568-.336-.709-.504-1.549-.504-2.52 0-1.512.411-2.707 1.232-3.584.821-.877 1.96-1.316 3.416-1.316.672 0 1.307.112 1.904.336.597.205.896.485.896.84 0 .635-.103 1.176-.308 1.624-.205.448-.42.672-.644.672-.056 0-.196-.028-.42-.084a1.71 1.71 0 00-.588-.112c-.392 0-.691.205-.896.616-.205.411-.308.971-.308 1.68 0 .691.177 1.251.532 1.68.373.429.821.644 1.344.644h1.764l.336-2.66c.056-.597.56-.896 1.512-.896h.98c.933 0 1.4.299 1.4.896v2.66h.616c.28 0 .485.112.616.336.131.224.196.579.196 1.064v.476c0 .485-.065.84-.196 1.064-.131.224-.336.336-.616.336h-.616v4.396c0 .467.019.784.056.952.056.168.187.252.392.252a.756.756 0 00.28-.056.651.651 0 01.224-.056zm-9.38-2.604c0 .933.112 1.624.336 2.072.224.429.644.644 1.26.644.411 0 .803-.047 1.176-.14.373-.093.849-.271 1.428-.532v-4.928h-2.044c-.84 0-1.409.233-1.708.7-.299.448-.448 1.176-.448 2.184zM355.55 251c-.355 0-.616-.084-.784-.252-.168-.187-.252-.476-.252-.868v-17.36c0-.392.084-.672.252-.84.168-.187.429-.28.784-.28h5.32c2.427 0 4.209.812 5.348 2.436 1.157 1.624 1.736 4.079 1.736 7.364s-.579 5.74-1.736 7.364c-1.139 1.624-2.921 2.436-5.348 2.436h-5.32zm5.18-3.668c.989 0 1.699-.457 2.128-1.372.429-.933.644-2.52.644-4.76 0-2.24-.215-3.817-.644-4.732-.429-.933-1.139-1.4-2.128-1.4h-1.792v12.264h1.792zm11.597 3.752c-1.082 0-1.624-.308-1.624-.924v-17.92c0-.616.542-.924 1.624-.924h1.176c1.064 0 1.596.308 1.596.924v17.92c0 .616-.532.924-1.596.924h-1.176zm10.241.14c-.915 0-1.82-.131-2.716-.392-.896-.28-1.55-.653-1.96-1.12-.243-.336-.364-.663-.364-.98 0-.523.14-1.055.42-1.596.28-.541.588-.812.924-.812.149 0 .382.093.7.28.336.187.578.317.727.392.728.373 1.373.56 1.933.56.597 0 1.119-.14 1.567-.42.448-.28.673-.756.673-1.428 0-.709-.215-1.26-.644-1.652-.43-.411-1.102-.859-2.016-1.344-1.4-.803-2.427-1.633-3.08-2.492-.635-.859-.952-1.997-.952-3.416 0-1.139.252-2.128.756-2.968a4.985 4.985 0 012.072-1.96c.896-.467 1.913-.7 3.052-.7.634 0 1.306.103 2.016.308.709.187 1.26.42 1.652.7.336.243.504.569.504.98 0 .485-.112.999-.336 1.54-.206.541-.467.812-.784.812-.15 0-.42-.075-.812-.224-.728-.28-1.335-.42-1.821-.42-.784 0-1.325.168-1.623.504-.28.336-.42.719-.42 1.148 0 .672.177 1.185.532 1.54.354.336.924.709 1.708 1.12.168.075.42.205.756.392 1.288.747 2.211 1.549 2.771 2.408.579.859.869 1.988.869 3.388a6.421 6.421 0 01-.672 2.912c-.448.877-1.13 1.587-2.044 2.128-.915.541-2.044.812-3.388.812zm9.758-.168c-1.082 0-1.624-.299-1.624-.896v-17.92c0-.597.542-.896 1.624-.896h.728c.374 0 .672.056.896.168.224.093.411.299.56.616l5.04 9.128c.262.485.579 1.213.952 2.184l.112-.056c-.149-.971-.224-1.708-.224-2.212v-8.932c0-.597.541-.896 1.624-.896h.672c1.083 0 1.624.299 1.624.896v17.92c0 .597-.541.896-1.624.896h-.532c-.373 0-.681-.047-.924-.14-.243-.112-.438-.327-.588-.644l-5.348-9.52c-.168-.28-.42-.877-.756-1.792l-.14.084c.149.859.224 1.493.224 1.904v9.212c0 .597-.541.896-1.624.896h-.672zm16.32-.056c-.355 0-.616-.084-.784-.252-.168-.187-.252-.476-.252-.868v-17.36c0-.392.084-.672.252-.84.168-.187.429-.28.784-.28h8.26c.28 0 .485.112.616.336.13.224.196.579.196 1.064v.868c0 .485-.066.84-.196 1.064-.131.224-.336.336-.616.336h-4.928v4.06h4.368c.28 0 .485.112.616.336.13.224.196.579.196 1.064v.868c0 .485-.066.84-.196 1.064-.131.224-.336.336-.616.336h-4.368v4.536h4.956c.28 0 .476.112.588.336.13.224.196.579.196 1.064v.868c0 .485-.066.84-.196 1.064-.112.224-.308.336-.588.336h-8.288zm16.633.056c-1.102 0-1.652-.299-1.652-.896v-7.616l-4.312-9.94a51.173 51.173 0 01-.168-.336 1.33 1.33 0 01-.084-.364c0-.168.14-.299.42-.392.298-.112.718-.168 1.26-.168h1.428c.914 0 1.428.177 1.54.532l2.184 6.888 2.156-6.888c.056-.205.214-.345.476-.42.261-.075.616-.112 1.064-.112h1.176c1.176 0 1.764.187 1.764.56 0 .187-.066.42-.196.7l-4.312 10.024v7.532c0 .597-.551.896-1.652.896h-1.092z"/>
  <path
      stroke="var(--color-fg,#333)"
      stroke-width="3"
      stroke-linecap="round"
      d="M14.5 233.5h9m-9 7h9m-9 7h9m415-14h9m-9 7h9m-9 7h9"/>
</svg>
