<svg width="32" height="32" viewBox="0 0 32 32" fill="none" xmlns="http://www.w3.org/2000/svg">
<circle cx="16" cy="16" r="16" fill="#75FBDE"/>
<path d="M20.9269 0.772915C18.6111 6.75658 12.8011 11 6.00001 11C4.28093 11 2.62517 10.7289 1.07315 10.2271C3.38889 4.24342 9.1989 0 16 0C17.7191 0 19.3749 0.271114 20.9269 0.772915Z" fill="#14B894"/>
<path d="M31.7967 13.4422C25.8008 11.814 21.2042 6.78698 20.2034 0.557846C26.1992 2.18604 30.7958 7.21302 31.7967 13.4422Z" fill="#14B894"/>
<path d="M30.9871 10.3852C27.3288 8.59848 24.4531 5.45735 23.0129 1.61476C26.6711 3.40153 29.5468 6.54266 30.9871 10.3852Z" fill="#75FBDE"/>
<path d="M18.7234 0.230839C15.9255 4.88566 10.8265 8 5 8C4.07162 8 3.16172 7.92093 2.27664 7.76916C5.07447 3.11434 10.1735 0 16 0C16.9284 0 17.8383 0.0790692 18.7234 0.230839Z" fill="#75FBDE"/>
<path d="M16.485 0.00720925C13.5526 3.66093 9.04945 6 4 6C3.83778 6 3.67611 5.99759 3.51505 5.99279C6.44743 2.33907 10.9506 0 16 0C16.1622 0 16.3239 0.00241441 16.485 0.00720925Z" fill="#14B894"/>
<path d="M7.5 23C9.98528 23 12 20.9853 12 18.5C12 16.0147 9.98528 14 7.5 14C5.01472 14 3 16.0147 3 18.5C3 20.9853 5.01472 23 7.5 23Z" fill="#E3EEA1"/>
<path d="M24.5 23C26.9853 23 29 20.9853 29 18.5C29 16.0147 26.9853 14 24.5 14C22.0147 14 20 16.0147 20 18.5C20 20.9853 22.0147 23 24.5 23Z" fill="#E3EEA1"/>
<path d="M8 19C8 19 8.57143 26.4286 16 26.4286C23.4286 26.4286 24 19 24 19" stroke="#14B894" stroke-width="2" stroke-linecap="round"/>
<path d="M8 13C8 13 8.42857 15 11 15C13.5714 15 14 13 14 13" stroke="#14B894" stroke-width="2" stroke-linecap="round"/>
<path d="M18 13C18 13 18.4286 15 21 15C23.5714 15 24 13 24 13" stroke="#14B894" stroke-width="2" stroke-linecap="round"/>
</svg>
