<svg xmlns="http://www.w3.org/2000/svg"
  fill="none"
  width="100%"
  height="100%"
  viewBox="0 0 108 48"
>
  <path
      fill="var(--color-bg,#fff)"
      d="M2 27.642L17.78 2v13.5l72.44-3.774L92.732 2 106 23.663 92.731 44v-8.4l-74.952 2.653V44L2 27.642z"/>
  <path
      fill="var(--sign-fill,#e0b8f3)"
      d="M3 31.642L18.78 6v13.5l72.44-3.774L93.732 6 107 27.663 93.731 48v-8.4l-74.952 2.653V48L3 31.642z"/>
  <path
      stroke="var(--sign-stroke,#333)"
      stroke-width="3"
      stroke-linejoin="round"
      stroke-linecap="round"
      stroke-dasharray="var(--sign-stroke-dasharray,0)"
      filter="var(--sign-stroke-filter)"
      vector-effect="non-scaling-stroke"
      d="M2 27.642L17.78 2v13.5l72.44-3.774L92.732 2 106 23.663 92.731 44v-8.4l-74.952 2.653V44L2 27.642z"/>
  <path
      fill="var(--sign-fg-shadow,#fff)"
      d="M27.36 24.157a.598.598 0 01-.08-.261.273.273 0 01.1-.232c.07-.058.17-.089.298-.093l1.919-.06a.598.598 0 01.574.319l1.42 2.44c.051.087.108.13.172.128.056-.002.107-.048.152-.137l1.314-2.526a.607.607 0 01.566-.354l1.127-.035a.478.478 0 01.303.075.273.273 0 01.115.224.597.597 0 01-.064.266l-2.311 4.442a.663.663 0 00-.063.302l.083 2.675c.01.32-.145.485-.465.495l-1.967.06c-.32.01-.485-.144-.495-.464l-.082-2.663a.661.661 0 00-.082-.297l-2.534-4.304zM40.136 31.756c-.927.03-1.756-.117-2.486-.439a3.905 3.905 0 01-1.739-1.47c-.42-.668-.647-1.49-.677-2.465-.026-.855.146-1.605.519-2.249a3.89 3.89 0 011.597-1.514c.686-.358 1.476-.55 2.372-.578.88-.027 1.668.116 2.366.43a3.813 3.813 0 011.677 1.413c.42.62.642 1.357.669 2.213.03.951-.133 1.773-.488 2.464a3.686 3.686 0 01-1.511 1.596c-.66.372-1.427.572-2.299.6zm-2.2-4.35c.024.776.235 1.378.633 1.806.397.42.947.619 1.65.597.649-.02 1.166-.257 1.552-.709.386-.46.567-1.07.543-1.83a2.578 2.578 0 00-.313-1.202 1.991 1.991 0 00-.793-.792 2.191 2.191 0 00-1.137-.253c-.423.013-.8.121-1.13.323a2.072 2.072 0 00-.755.84 2.49 2.49 0 00-.25 1.22zM45.585 23.216c-.01-.32.145-.485.465-.495l2.195-.068a.627.627 0 01.585.306l2.523 3.931c.051.079.104.117.16.116a.114.114 0 00.095-.051.3.3 0 00.03-.157l-.116-3.767c-.01-.32.145-.484.465-.494l1.247-.039c.32-.01.485.145.495.465l.23 7.436c.01.32-.144.485-.464.495l-2.22.069a.627.627 0 01-.585-.306l-2.498-3.884c-.05-.087-.108-.13-.172-.127-.032 0-.06.022-.082.062-.023.033-.033.082-.031.145l.116 3.73c.01.32-.146.485-.465.495l-1.248.039c-.32.01-.485-.145-.494-.465l-.231-7.436zM55.166 22.906c-.01-.32.14-.488.452-.506.942-.07 1.793-.116 2.553-.14l.528-.016c1.44-.037 2.598.276 3.474.937.885.653 1.345 1.679 1.38 3.078.048 1.536-.333 2.664-1.143 3.386-.81.721-1.942 1.104-3.398 1.15-1.391.043-2.435.06-3.132.049-.312.002-.473-.158-.483-.477l-.231-7.46zm3.18 5.772c.005.152.088.234.248.245.24.008.413.01.517.008.935-.03 1.612-.255 2.032-.676.426-.43.627-1.06.601-1.891-.047-1.528-.975-2.263-2.782-2.207a8.755 8.755 0 00-.515.04c-.16.02-.236.107-.232.26l.131 4.221zM65.25 30.529c-.32.01-.484-.145-.494-.465l-.231-7.436c-.01-.32.145-.485.465-.495l6.345-.197c.32-.01.484.145.494.465l.023.743c.01.32-.145.485-.465.495l-3.658.114c-.16.005-.237.087-.232.247l.035 1.127c.005.16.087.238.247.233l2.579-.08c.32-.01.485.145.495.465l.023.743c.01.32-.145.485-.465.495l-2.579.08c-.16.005-.237.088-.232.247l.037 1.2c.005.16.087.237.247.232l3.658-.113c.32-.01.485.145.495.464l.023.744c.01.32-.145.485-.465.495l-6.345.197zM78.97 24.652c-.013-.424-.183-.735-.509-.933-.326-.205-.861-.297-1.605-.274-.112.004-.32.018-.623.044-.16.02-.237.107-.232.259l.061 1.979c.003.072.04.13.114.177.081.045.194.07.338.073l.372-.012c.776-.024 1.32-.133 1.635-.326.314-.194.464-.523.45-.987zm-5.216 5.613c-.32.01-.485-.145-.495-.465l-.23-7.448c-.01-.312.14-.485.451-.519.551-.049 1.178-.084 1.882-.106l.696-.022c1.087-.034 1.989.014 2.705.144.725.13 1.297.408 1.719.835.421.42.644 1.037.67 1.852.018.592-.086 1.092-.314 1.499-.22.407-.538.72-.955.942-.094.05-.14.112-.138.184a.3.3 0 00.04.131l1.28 2.17c.05.094.077.181.08.261a.273.273 0 01-.101.231.477.477 0 01-.297.094l-1.644.05a.623.623 0 01-.586-.317l-1.213-1.968c-.067-.101-.153-.15-.257-.148l-.683.034c-.16.004-.238.087-.233.247l.055 1.763c.01.32-.145.485-.465.495l-1.967.06z"/>
  <path
      fill="var(--sign-fg,#333)"
      filter="var(--sign-fg-filter)"
      d="M26.36 23.157a.598.598 0 01-.08-.261.273.273 0 01.1-.232c.07-.058.17-.089.298-.093l1.919-.06a.598.598 0 01.574.319l1.42 2.44c.051.087.108.13.172.128.056-.002.107-.048.152-.137l1.314-2.526a.607.607 0 01.566-.354l1.127-.035a.478.478 0 01.303.075.273.273 0 01.115.224.597.597 0 01-.064.266l-2.311 4.442a.663.663 0 00-.063.302l.083 2.675c.01.32-.145.485-.465.495l-1.967.06c-.32.01-.485-.144-.495-.464l-.082-2.663a.661.661 0 00-.082-.297l-2.534-4.304zM39.136 30.756c-.927.03-1.756-.117-2.486-.439a3.905 3.905 0 01-1.739-1.47c-.42-.668-.647-1.49-.677-2.465-.026-.855.146-1.605.519-2.249a3.89 3.89 0 011.597-1.514c.686-.358 1.476-.55 2.372-.578.88-.027 1.668.116 2.366.43a3.813 3.813 0 011.677 1.413c.42.62.642 1.357.669 2.213.03.951-.133 1.773-.488 2.464a3.686 3.686 0 01-1.511 1.596c-.66.372-1.427.572-2.299.6zm-2.2-4.35c.024.776.235 1.378.633 1.806.397.42.947.619 1.65.597.649-.02 1.166-.257 1.552-.709.386-.46.567-1.07.543-1.83a2.578 2.578 0 00-.313-1.202 1.991 1.991 0 00-.793-.792 2.191 2.191 0 00-1.137-.253c-.423.013-.8.121-1.13.323a2.072 2.072 0 00-.755.84 2.49 2.49 0 00-.25 1.22zM44.585 22.216c-.01-.32.145-.485.465-.495l2.195-.068a.627.627 0 01.585.306l2.523 3.931c.051.079.104.117.16.116a.114.114 0 00.095-.051.3.3 0 00.03-.157l-.116-3.767c-.01-.32.145-.484.465-.494l1.247-.039c.32-.01.485.145.495.465l.23 7.436c.01.32-.144.485-.464.495l-2.22.069a.627.627 0 01-.585-.306l-2.498-3.884c-.05-.087-.108-.13-.172-.127-.032 0-.06.022-.082.062-.023.033-.033.082-.031.145l.116 3.73c.01.32-.146.485-.465.495l-1.248.039c-.32.01-.485-.145-.494-.465l-.231-7.436zM54.166 21.906c-.01-.32.14-.488.452-.506.942-.07 1.793-.116 2.553-.14l.528-.016c1.44-.037 2.598.276 3.474.937.885.653 1.345 1.679 1.38 3.078.048 1.536-.333 2.664-1.143 3.386-.81.721-1.942 1.104-3.398 1.15-1.391.043-2.435.06-3.132.049-.312.002-.473-.158-.483-.477l-.231-7.46zm3.18 5.772c.005.152.088.234.248.245.24.008.413.01.517.008.935-.03 1.612-.255 2.032-.676.426-.43.627-1.06.601-1.891-.047-1.528-.975-2.263-2.782-2.207a8.755 8.755 0 00-.515.04c-.16.02-.236.107-.232.26l.131 4.221zM64.25 29.529c-.32.01-.484-.145-.494-.465l-.231-7.436c-.01-.32.145-.485.465-.495l6.345-.197c.32-.01.484.145.494.465l.023.743c.01.32-.145.485-.465.495l-3.658.114c-.16.005-.237.087-.232.247l.035 1.127c.005.16.087.238.247.233l2.579-.08c.32-.01.485.145.495.465l.023.743c.01.32-.145.485-.465.495l-2.579.08c-.16.005-.237.088-.232.247l.037 1.2c.005.16.087.237.247.232l3.658-.113c.32-.01.485.145.495.464l.023.744c.01.32-.145.485-.465.495l-6.345.197zM77.97 23.652c-.013-.424-.183-.735-.509-.933-.326-.205-.861-.297-1.605-.274-.112.004-.32.018-.623.044-.16.02-.237.107-.232.259l.061 1.979c.003.072.04.13.114.177.081.045.194.07.338.073l.372-.012c.776-.024 1.32-.133 1.635-.326.314-.194.464-.523.45-.987zm-5.216 5.613c-.32.01-.485-.145-.495-.465l-.23-7.448c-.01-.312.14-.485.451-.519.551-.049 1.178-.084 1.882-.106l.696-.022c1.087-.034 1.989.014 2.705.144.725.13 1.297.408 1.719.835.421.42.644 1.037.67 1.852.018.592-.086 1.092-.314 1.499-.22.407-.538.72-.955.942-.094.05-.14.112-.138.184a.3.3 0 00.04.131l1.28 2.17c.05.094.077.181.08.261a.273.273 0 01-.101.231.477.477 0 01-.297.094l-1.644.05a.623.623 0 01-.586-.317l-1.213-1.968c-.067-.101-.153-.15-.257-.148l-.683.034c-.16.004-.238.087-.233.247l.055 1.763c.01.32-.145.485-.465.495l-1.967.06z"/>
</svg>
