<svg xmlns="http://www.w3.org/2000/svg"
    focusable="false"
    fill="none"
    width="100%"
    height="100%"
    viewBox="0 0 111 123"
>
  <path
      fill="var(--color-bg,#fff)"
      d="M1.626 87.532L90.233 2.103l15.569 19.871-81.138 87.768-23.136 11.032.098-33.242z"/>
  <path
      fill="var(--sign-fill,#e3eea1)"
      d="M6.626 89.532L95.233 4.103l15.569 19.871-81.138 87.768-23.136 11.032.098-33.242z"/>
  <path
      stroke="var(--sign-stroke,#333)"
      stroke-width="3"
      stroke-linejoin="round"
      stroke-linecap="round"
      stroke-dasharray="var(--sign-stroke-dasharray,0)"
      filter="var(--sign-stroke-filter)"
      vector-effect="non-scaling-stroke"
      d="M1.626 87.532L90.233 2.103l15.569 19.871-81.138 87.768-23.136 11.032.098-33.242z"/>
  <path
      fill="var(--sign-fg-shadow,#fff)"
      d="M14.493 89.585c.136-.141.274-.144.415-.007l1.15 1.107c.14.136.143.275.007.416l-1.108 1.149c-.077.08-.076.16.005.237l8.678 8.366c.141.136.143.275.008.416l-1.633 1.693c-.136.142-.274.144-.416.008l-8.678-8.366c-.08-.078-.16-.076-.237.004l-1.108 1.15c-.136.14-.274.143-.416.007l-1.149-1.108c-.14-.136-.143-.274-.007-.415l4.489-4.657zM25.165 90.496c.078-.08.077-.16-.004-.237l-5.654-5.451c-.142-.136-.144-.275-.008-.416l1.632-1.693c.136-.141.275-.144.416-.008l10.16 9.794c.14.136.143.275.007.416l-1.632 1.694c-.136.14-.274.143-.416.007l-2.69-2.594c-.081-.078-.16-.076-.238.004l-1.297 1.346c-.078.08-.077.16.004.237l2.691 2.594c.141.137.144.275.008.416L26.51 98.3c-.136.14-.274.143-.415.007l-10.16-9.794c-.141-.136-.144-.275-.008-.416l1.633-1.693c.136-.141.274-.144.415-.008l5.655 5.451c.08.078.16.076.237-.004l1.297-1.346zM38.92 85.064c.05.048.076.112.078.191.001.06-.028.12-.086.18l-1.734 1.799c-.117.121-.255.133-.415.037l-1.683-1.068c-.09-.048-.164-.041-.223.02l-1.807 1.874c-.058.06-.062.135-.01.223l1.129 1.672c.092.147.074.286-.052.417l-1.093 1.134a.312.312 0 01-.22.108c-.07-.009-.136-.052-.196-.13l-8.12-11.94c-.092-.148-.075-.287.052-.418L26.2 77.44c.127-.131.265-.153.415-.067l12.259 7.647.045.044zm-9.702-2.674c-.06-.039-.11-.038-.149.002-.029.03-.028.08.003.149l2.503 3.667.03.03c.07.067.14.066.208-.005l1.151-1.194c.088-.09.076-.17-.034-.237l-3.712-2.412zM33.238 70.14c.136-.14.275-.143.416-.007l1.149 1.108c.14.136.143.274.007.415l-1.107 1.15c-.078.08-.077.16.004.237l8.678 8.366c.141.136.144.274.008.415l-1.633 1.694c-.136.14-.274.143-.415.007l-8.678-8.366c-.081-.077-.16-.076-.238.005l-1.108 1.149c-.136.14-.274.144-.416.007l-1.149-1.107c-.14-.136-.143-.275-.007-.416l4.489-4.656zM38.766 64.83c-.141-.136-.144-.275-.008-.416l3.877-4.021c.38-.394.772-.589 1.178-.586.405-.018.805.163 1.198.542l8.133 7.841c.363.35.554.748.572 1.193.028.435-.129.829-.469 1.182l-3.906 4.052c-.136.14-.274.143-.415.007l-10.16-9.794zm3.562-.942c-.078.081-.076.16.004.238l7.166 6.908c.081.078.16.077.238-.004l.933-.968a.658.658 0 00.183-.523.76.76 0 00-.232-.515L44.3 62.93a.712.712 0 00-.523-.213.658.658 0 00-.516.203l-.933.967zM55.76 67.958c-.136.14-.274.144-.415.008l-10.16-9.795c-.141-.136-.144-.274-.008-.416l1.633-1.693c.136-.14.274-.143.416-.007l10.16 9.794c.14.136.143.274.007.416l-1.633 1.693zM60.588 62.527c.14.136.143.274.007.416l-1.632 1.693c-.136.141-.275.144-.416.008l-10.16-9.795c-.14-.136-.143-.274-.007-.415l3.833-3.977c.34-.352.748-.533 1.223-.542.475-.028.888.127 1.241.467l5.095 4.912c.363.35.597.682.702.997.104.315.046.628-.176.94-.088.09-.072.164.048.221l3.403 1.735c.03.01.06.028.09.058a.2.2 0 01.063.177c.001.059-.027.119-.086.18l-1.399 1.45c-.126.132-.264.154-.414.068l-3.509-1.807c-.09-.048-.169-.037-.237.034l-.35.363c-.077.08-.076.16.005.237l2.676 2.58zm-4.506-4.343c.081.077.16.076.238-.005l.962-.998c.155-.16.232-.31.23-.45-.003-.138-.085-.285-.246-.44L54.09 53.23c-.162-.156-.312-.232-.45-.23-.139.003-.286.085-.441.246l-.962.998c-.078.08-.076.16.004.238l3.84 3.702zM58.966 43.452c.136-.14.275-.143.416-.007l1.149 1.107c.141.136.144.275.008.416l-2.158 2.238c-.077.08-.076.16.005.237l1.92 1.851c.08.078.16.076.237-.004l1.575-1.633c.136-.141.274-.144.415-.008l1.15 1.108c.14.136.143.275.007.416l-1.574 1.633c-.078.08-.077.16.004.237l3.462 3.338c.08.078.16.076.238-.005l2.157-2.237c.136-.141.274-.144.416-.008l1.149 1.108c.14.136.143.275.007.416l-4.11 4.263c-.136.141-.274.144-.416.008l-10.16-9.795c-.14-.136-.143-.274-.007-.415l4.11-4.264zM72.08 51.03c-.379.392-.771.598-1.177.615-.406-.003-.805-.193-1.198-.572l-8.164-7.87c-.393-.38-.594-.767-.6-1.163-.009-.416.177-.82.556-1.213l2.828-2.933c.379-.393.771-.588 1.177-.586.406-.017.805.163 1.198.542l1.83 1.764c.14.136.143.275.007.416L67.4 41.209c-.136.141-.274.144-.416.008l-.982-.948c-.141-.136-.291-.202-.45-.2-.158.003-.305.075-.441.216l-.685.711c-.136.141-.203.29-.2.45.003.158.075.305.216.44l6.501 6.268c.141.136.291.203.45.2.158-.003.305-.075.441-.216l.685-.71c.136-.142.203-.292.2-.45-.003-.158-.075-.306-.216-.442l-1.013-.976c-.141-.136-.144-.275-.008-.416l1.137-1.18c.136-.14.275-.143.416-.007l1.83 1.764c.392.379.593.776.6 1.192.007.396-.178.79-.557 1.183L72.08 51.03zM71.198 30.764c.136-.141.275-.144.416-.008l1.149 1.108c.14.136.143.275.007.416l-1.107 1.149c-.078.08-.077.16.004.237l8.678 8.366c.141.136.144.275.008.416l-1.633 1.693c-.136.141-.274.144-.415.008l-8.679-8.366c-.08-.078-.16-.076-.237.004l-1.108 1.15c-.136.14-.274.143-.415.007l-1.15-1.108c-.14-.136-.143-.274-.007-.415l4.489-4.657zM83.216 39.477c-.136.142-.274.144-.415.008l-10.16-9.794c-.141-.136-.144-.275-.008-.416l1.633-1.693c.136-.141.274-.144.415-.008l10.16 9.794c.141.136.144.275.008.416l-1.633 1.694zM87.38 35.158c-.378.393-.77.598-1.176.615-.406-.002-.805-.193-1.199-.572l-8.164-7.87c-.393-.38-.593-.767-.6-1.162-.008-.416.178-.82.557-1.214l2.827-2.933c.38-.393.772-.588 1.178-.586.405-.017.805.164 1.198.543l8.164 7.87c.393.38.593.776.6 1.192.008.396-.178.79-.557 1.184l-2.827 2.933zm-1.136-2.876c.141.136.29.203.45.2.158-.003.305-.075.44-.216l.686-.71c.136-.142.203-.291.2-.45-.003-.158-.075-.305-.216-.441l-6.502-6.267c-.14-.136-.29-.203-.449-.2-.158.003-.305.075-.441.216l-.685.71c-.136.142-.203.291-.2.45.003.158.075.305.216.441l6.501 6.267zM90.11 20.678c.06.038.104.033.133-.018.029-.05.018-.099-.032-.147l-4.52-4.358c-.142-.136-.145-.275-.008-.416l1.107-1.149c.136-.141.275-.144.416-.008l10.16 9.795c.14.136.143.274.007.415l-1.457 1.512c-.107.111-.24.138-.4.082L89.48 23.57c-.06-.039-.104-.033-.133.017-.029.05-.018.1.033.148l4.46 4.3c.14.135.143.274.007.415l-1.108 1.15c-.135.14-.274.143-.415.007l-10.16-9.794c-.141-.137-.144-.275-.008-.416l1.443-1.497c.107-.11.24-.138.4-.082l6.112 2.859z"/>
  <path
      fill="var(--sign-fg,#333)"
      filter="var(--sign-fg-filter)"
      d="M14.493 87.585c.136-.141.274-.144.415-.007l1.15 1.107c.14.136.143.275.007.416l-1.108 1.149c-.077.08-.076.16.005.237l8.678 8.366c.141.136.143.275.008.416l-1.633 1.693c-.136.142-.274.144-.416.008l-8.678-8.366c-.08-.078-.16-.076-.237.004l-1.108 1.15c-.136.14-.274.143-.416.007l-1.149-1.108c-.14-.136-.143-.274-.007-.415l4.489-4.657zM25.165 88.496c.078-.08.077-.16-.004-.237l-5.654-5.451c-.142-.136-.144-.275-.008-.416l1.632-1.693c.136-.141.275-.144.416-.008l10.16 9.794c.14.136.143.275.007.416l-1.632 1.694c-.136.14-.274.143-.416.007l-2.69-2.594c-.081-.078-.16-.076-.238.004l-1.297 1.346c-.078.08-.077.16.004.237l2.691 2.594c.141.137.144.275.008.416L26.51 96.3c-.136.14-.274.143-.415.007l-10.16-9.794c-.141-.136-.144-.275-.008-.416l1.633-1.693c.136-.141.274-.144.415-.008l5.655 5.451c.08.078.16.076.237-.004l1.297-1.346zM38.92 83.064c.05.048.076.112.078.191.001.06-.028.12-.086.18l-1.734 1.799c-.117.121-.255.133-.415.037l-1.683-1.068c-.09-.048-.164-.041-.223.02l-1.807 1.874c-.058.06-.062.135-.01.223l1.129 1.672c.092.147.074.286-.052.417l-1.093 1.134a.312.312 0 01-.22.108c-.07-.009-.136-.052-.196-.13l-8.12-11.94c-.092-.148-.075-.287.052-.418L26.2 75.44c.127-.131.265-.153.415-.067l12.259 7.647.045.044zm-9.702-2.674c-.06-.039-.11-.038-.149.002-.029.03-.028.08.003.149l2.503 3.667.03.03c.07.067.14.066.208-.005l1.151-1.194c.088-.09.076-.17-.034-.237l-3.712-2.412zM33.238 68.14c.136-.14.275-.143.416-.007l1.149 1.108c.14.136.143.274.007.415l-1.107 1.15c-.078.08-.077.16.004.237l8.678 8.366c.141.136.144.274.008.415l-1.633 1.694c-.136.14-.274.143-.415.007l-8.678-8.366c-.081-.077-.16-.076-.238.005l-1.108 1.149c-.136.14-.274.144-.416.007l-1.149-1.107c-.14-.136-.143-.275-.007-.416l4.489-4.656zM38.766 62.83c-.141-.136-.144-.275-.008-.416l3.877-4.021c.38-.394.772-.589 1.178-.586.405-.018.805.163 1.198.542l8.133 7.841c.363.35.554.748.572 1.193.028.435-.129.829-.469 1.182l-3.906 4.052c-.136.14-.274.143-.415.007l-10.16-9.794zm3.562-.942c-.078.081-.076.16.004.238l7.166 6.908c.081.078.16.077.238-.004l.933-.968a.658.658 0 00.183-.523.76.76 0 00-.232-.515L44.3 60.93a.712.712 0 00-.523-.213.658.658 0 00-.516.203l-.933.967zM55.76 65.958c-.136.14-.274.144-.415.008l-10.16-9.795c-.141-.136-.144-.274-.008-.416l1.633-1.693c.136-.14.274-.143.416-.007l10.16 9.794c.14.136.143.274.007.416l-1.633 1.693zM60.588 60.527c.14.136.143.274.007.416l-1.632 1.693c-.136.141-.275.143-.416.008l-10.16-9.795c-.14-.136-.143-.274-.007-.415l3.833-3.977c.34-.352.748-.533 1.223-.542.475-.028.888.127 1.241.467l5.095 4.912c.363.35.597.682.702.997.104.315.046.628-.176.94-.088.09-.072.164.048.221l3.403 1.735c.03.01.06.028.09.058a.2.2 0 01.063.177c.001.059-.027.119-.086.18l-1.399 1.45c-.126.132-.264.154-.414.068l-3.509-1.807c-.09-.048-.169-.037-.237.034l-.35.363c-.077.08-.076.16.005.237l2.676 2.58zm-4.506-4.343c.081.077.16.076.238-.005l.962-.998c.155-.16.232-.31.23-.45-.003-.138-.085-.285-.246-.44L54.09 51.23c-.162-.156-.312-.232-.45-.23-.139.003-.286.085-.441.246l-.962.998c-.078.08-.076.16.004.238l3.84 3.702zM58.966 41.452c.136-.14.275-.143.416-.007l1.149 1.107c.141.136.144.275.008.416l-2.158 2.238c-.077.08-.076.16.005.237l1.92 1.851c.08.078.16.076.237-.004l1.575-1.633c.136-.141.274-.144.415-.008l1.15 1.108c.14.136.143.275.007.416l-1.574 1.633c-.078.08-.077.16.004.237l3.462 3.338c.08.078.16.076.238-.005l2.157-2.237c.136-.141.274-.144.416-.008l1.149 1.108c.14.136.143.275.007.416l-4.11 4.263c-.136.141-.274.144-.416.008l-10.16-9.795c-.14-.136-.143-.274-.007-.415l4.11-4.264zM72.08 49.03c-.379.392-.771.598-1.177.615-.406-.003-.805-.193-1.198-.572l-8.164-7.87c-.393-.38-.594-.767-.6-1.163-.009-.416.177-.82.556-1.213l2.828-2.933c.379-.393.771-.588 1.177-.586.406-.017.805.163 1.198.542l1.83 1.764c.14.136.143.275.007.416L67.4 39.209c-.136.141-.274.144-.416.008l-.982-.948c-.141-.136-.291-.202-.45-.2-.158.003-.305.075-.441.216l-.685.711c-.136.141-.203.29-.2.45.003.158.075.305.216.44l6.501 6.268c.141.136.291.203.45.2.158-.003.305-.075.441-.216l.685-.71c.136-.142.203-.292.2-.45-.003-.158-.075-.306-.216-.442l-1.013-.976c-.141-.136-.144-.275-.008-.416l1.137-1.18c.136-.14.275-.143.416-.007l1.83 1.764c.392.379.593.776.6 1.192.007.396-.178.79-.557 1.183L72.08 49.03zM71.198 28.764c.136-.141.275-.144.416-.008l1.149 1.108c.14.136.143.275.007.416l-1.107 1.149c-.078.08-.077.16.004.237l8.678 8.366c.141.136.144.275.008.416l-1.633 1.693c-.136.141-.274.144-.415.008l-8.679-8.366c-.08-.078-.16-.076-.237.004l-1.108 1.15c-.136.14-.274.143-.415.007l-1.15-1.108c-.14-.136-.143-.274-.007-.415l4.489-4.657zM83.216 37.477c-.136.142-.274.144-.415.008l-10.16-9.794c-.141-.136-.144-.275-.008-.416l1.633-1.693c.136-.141.274-.144.415-.008l10.16 9.794c.141.136.144.275.008.416l-1.633 1.694zM87.38 33.158c-.378.393-.77.598-1.176.615-.406-.002-.805-.193-1.199-.572l-8.164-7.87c-.393-.38-.593-.767-.6-1.162-.008-.416.178-.82.557-1.214l2.827-2.933c.38-.393.772-.588 1.178-.586.405-.017.805.164 1.198.543l8.164 7.87c.393.38.593.776.6 1.192.008.396-.178.79-.557 1.184l-2.827 2.933zm-1.136-2.876c.141.136.29.203.45.2.158-.003.305-.075.44-.216l.686-.71c.136-.142.203-.291.2-.45-.003-.158-.075-.305-.216-.441l-6.502-6.267c-.14-.136-.29-.203-.449-.2-.158.003-.305.075-.441.216l-.685.71c-.136.142-.203.291-.2.45.003.158.075.305.216.441l6.501 6.267zM90.11 18.678c.06.038.104.033.133-.018.029-.05.018-.099-.032-.147l-4.52-4.358c-.142-.136-.145-.275-.008-.416l1.107-1.149c.136-.141.275-.144.416-.008l10.16 9.795c.14.136.143.274.007.415l-1.457 1.512c-.107.111-.24.138-.4.082L89.48 21.57c-.06-.039-.104-.033-.133.017-.029.05-.018.1.033.148l4.46 4.3c.14.135.143.274.007.415l-1.108 1.15c-.135.14-.274.143-.415.007l-10.16-9.794c-.141-.137-.144-.275-.008-.416l1.443-1.497c.107-.11.24-.138.4-.082l6.112 2.859z"/>
</svg>
