<svg xmlns="http://www.w3.org/2000/svg"
    focusable="false"
    fill="none"
    width="100%"
    height="100%"
    viewBox="0 0 43 55"
>
  <path
      fill="var(--color-bg,#fff)"
      d="M11.608 39.002L1.766 7.514l12.561.953 10.524-6.923 5.658 31.73 8.155-2.95L24.53 51.206 3.25 41.164l8.358-2.162z"/>
  <path
      fill="var(--sign-fill,#a7f1ed)"
      d="M15.608 42.002L5.766 10.514l12.561.953 10.524-6.923 5.658 31.73 8.155-2.95L28.53 54.206 7.25 44.164l8.358-2.162z"/>
  <path
      stroke="var(--sign-stroke,#333)"
      stroke-width="3"
      stroke-linejoin="round"
      stroke-linecap="round"
      stroke-dasharray="var(--sign-stroke-dasharray,0)"
      filter="var(--sign-stroke-filter)"
      vector-effect="non-scaling-stroke"
      d="M11.608 39.002L1.766 7.514l12.561.953 10.524-6.923 5.658 31.73 8.155-2.95L24.53 51.206 3.25 41.164l8.358-2.162z"/>
  <path
      fill="var(--sign-fg-shadow,#fff)"
      d="M25.862 23.76c-.148.027-.37.064-.663.11-.289.047-.619.097-.991.153a238.397 238.397 0 01-2.32.367l-.998.162c-.299.049-.523.087-.672.114-1.181.184-2.222.246-3.12.184-.893-.058-1.659-.24-2.298-.548a4.08 4.08 0 01-1.565-1.299c-.409-.552-.717-1.233-.927-2.044a4.17 4.17 0 01-.099-1.652 3.984 3.984 0 01.52-1.51 4.228 4.228 0 011.095-1.218 4.706 4.706 0 011.647-.763c.081-.02.229-.053.442-.097l.802-.147c.316-.052.671-.116 1.068-.19.403-.07.83-.145 1.283-.227l1.372-.252c.5-.094.916-.176 1.244-.243.335-.07.604-.122.808-.157.206-.03.36-.039.461-.025a.301.301 0 01.225.133l1.332 2.605c.04.065.07.135.089.21.022.087.012.15-.03.19-.04.045-.127.085-.262.12l-6.554 1.037c-.192.038-.403.073-.632.103a5.82 5.82 0 00-.692.136c-.14.036-.29.092-.45.168-.158.081-.3.187-.428.318-.122.13-.215.286-.277.47-.056.187-.05.408.015.662.08.308.21.54.388.695.184.155.4.26.645.318.251.056.52.073.81.05.295-.019.593-.05.893-.093l1.226-.213c.47-.081.972-.17 1.506-.268l3.299-.602c.1-.015.183-.03.248-.047.066-.012.122-.017.168-.018.046 0 .084.013.114.04a.513.513 0 01.093.157l1.389 2.591a.76.76 0 01.089.21c.02.076.009.137-.031.182-.034.049-.12.091-.262.128zM25.62 35.915a5.962 5.962 0 01-1.284.185 4.088 4.088 0 01-1.09-.098 3.688 3.688 0 01-.94-.354 5.387 5.387 0 01-.85-.576 6.335 6.335 0 01-1.345-1.547 6.872 6.872 0 01-.869-2.188 7.109 7.109 0 01-.057-.323l-3.031.498-.287-.072c-.025-.006-.092-.086-.202-.242-.11-.157-.24-.353-.394-.59l-.303-.467a22.4 22.4 0 00-.273-.388c-.081-.111-.155-.216-.22-.315a1.875 1.875 0 01-.163-.295 1.619 1.619 0 01-.117-.316.27.27 0 01.011-.193c.027-.053.094-.094.202-.122l1.411-.27c.28-.054.56-.107.842-.157.289-.045.614-.104.977-.174l1.98-.348c.402-.07.805-.142 1.207-.217.402-.075.785-.145 1.149-.21a186.217 186.217 0 001.851-.34 20.09 20.09 0 01-.328-.668 2.861 2.861 0 01-.144-.387c-.03-.114.005-.183.102-.208.285.007.563.01.834.009.232.003.469.006.711.006l.627.011a.81.81 0 01.242.033c.064.024.116.06.157.106a.962.962 0 01.138.198c.05.085.114.187.191.305.06.095.131.229.217.403.092.178.188.38.287.609a22.219 22.219 0 01.643 1.581c.108.283.206.564.295.84.095.276.174.538.238.787.16.616.254 1.214.283 1.795.029.58-.041 1.115-.21 1.602a2.972 2.972 0 01-.847 1.275c-.396.367-.942.641-1.64.822zm-3.966-5.297a.406.406 0 00-.154.074c-.038.033-.044.098-.019.195.04.152.118.322.236.51.125.193.281.374.47.545.19.176.407.327.654.453a2.096 2.096 0 001.247.205c.175-.016.376-.053.603-.112.379-.098.623-.303.733-.614.112-.305.113-.669.004-1.09a2.171 2.171 0 00-.08-.24 1.328 1.328 0 00-.105-.24.835.835 0 00-.131-.174c-.041-.047-.087-.067-.137-.06l-.183.03c-.071.013-.19.032-.357.058l-.558.084c-.21.037-.431.074-.664.11-.232.043-.453.08-.664.112-.21.037-.395.068-.556.092l-.34.062z"/>
  <path
      fill="var(--sign-fg,#333)"
      filter="var(--sign-fg-filter)"
      d="M23.862 22.76c-.148.027-.37.064-.663.11-.289.047-.619.097-.991.153a238.397 238.397 0 01-2.32.367l-.998.162c-.299.049-.523.087-.672.114-1.181.184-2.222.246-3.12.184-.893-.058-1.659-.24-2.298-.548a4.08 4.08 0 01-1.565-1.299c-.409-.552-.717-1.233-.927-2.044a4.17 4.17 0 01-.099-1.652 3.984 3.984 0 01.52-1.51 4.228 4.228 0 011.095-1.218 4.706 4.706 0 011.647-.763c.081-.02.229-.053.442-.097l.802-.147c.316-.052.671-.116 1.068-.19.403-.07.83-.145 1.283-.227l1.372-.252c.5-.094.916-.176 1.244-.243.335-.07.604-.122.808-.157.206-.03.36-.039.461-.025a.301.301 0 01.225.133l1.332 2.605c.04.065.07.135.089.21.022.087.012.15-.03.19-.04.045-.127.085-.262.12l-6.554 1.037c-.192.038-.403.073-.632.103a5.82 5.82 0 00-.692.136c-.14.036-.29.092-.45.168-.158.081-.3.187-.428.318-.122.13-.215.286-.277.47-.056.187-.05.408.015.662.08.308.21.54.388.695.184.155.4.26.645.318.251.056.52.073.81.05.295-.019.593-.05.893-.093l1.226-.213c.47-.081.972-.17 1.506-.268l3.299-.602c.1-.015.183-.03.248-.047.066-.012.122-.017.168-.018.046 0 .084.013.114.04a.513.513 0 01.093.157l1.389 2.591a.76.76 0 01.089.21c.02.076.009.137-.031.182-.034.049-.12.091-.262.128zM23.62 34.915a5.962 5.962 0 01-1.284.185 4.088 4.088 0 01-1.09-.098 3.688 3.688 0 01-.94-.354 5.387 5.387 0 01-.85-.576 6.335 6.335 0 01-1.345-1.547 6.872 6.872 0 01-.869-2.188 7.109 7.109 0 01-.057-.323l-3.031.498-.287-.072c-.025-.006-.092-.086-.202-.242-.11-.157-.24-.353-.394-.59l-.303-.467a22.4 22.4 0 00-.273-.388c-.081-.111-.155-.216-.22-.315a1.875 1.875 0 01-.163-.295 1.619 1.619 0 01-.117-.316.27.27 0 01.011-.193c.027-.053.094-.094.202-.122l1.411-.27c.28-.054.56-.107.842-.157.289-.045.614-.104.977-.174l1.98-.348c.402-.07.805-.142 1.207-.217.402-.075.785-.145 1.149-.21a186.217 186.217 0 001.851-.34 20.09 20.09 0 01-.328-.668 2.861 2.861 0 01-.144-.387c-.03-.114.005-.183.102-.208.285.007.563.01.834.009.232.003.469.006.711.006l.627.011a.81.81 0 01.242.033c.064.024.116.06.157.106a.962.962 0 01.138.198c.05.085.114.187.191.305.06.095.131.229.217.403.092.178.188.38.287.609a22.219 22.219 0 01.643 1.581c.108.283.206.564.295.84.095.276.174.538.238.787.16.616.254 1.214.283 1.795.029.58-.041 1.115-.21 1.602a2.972 2.972 0 01-.847 1.275c-.396.367-.942.641-1.64.822zm-3.966-5.297a.406.406 0 00-.154.074c-.038.033-.044.098-.019.195.04.152.118.322.236.51.125.193.281.374.47.545.19.176.407.327.654.453a2.096 2.096 0 001.247.205c.175-.016.376-.053.603-.112.379-.098.623-.303.733-.614.112-.305.113-.669.004-1.09a2.171 2.171 0 00-.08-.24 1.328 1.328 0 00-.105-.24.835.835 0 00-.131-.174c-.041-.047-.087-.067-.137-.06l-.183.03c-.071.013-.19.032-.357.058l-.558.084c-.21.037-.431.074-.664.11-.232.043-.453.08-.664.112-.21.037-.395.068-.556.092l-.34.062z"/>
</svg>
