<svg xmlns="http://www.w3.org/2000/svg"
    focusable="false"
    fill="none"
    width="100%"
    height="100%"
    viewBox="0 0 111 62"
>
  <path
      fill="var(--color-bg,#fff)"
      d="M10.21 59.114L1.914 32.072l98.963-30.376 5.542 13.02-8.774 7.353.336 11.895-87.771 25.15z"/>
  <path
      fill="var(--sign-fill,#fbd2ac)"
      d="M14.21 61.114L5.914 34.072l98.963-30.376 5.542 13.02-8.774 7.353.335 11.895-87.77 25.15z"/>
  <path
      stroke="var(--sign-stroke,#333)"
      stroke-width="2"
      stroke-linejoin="round"
      stroke-linecap="round"
      stroke-dasharray="var(--sign-stroke-dasharray,0)"
      filter="var(--sign-stroke-filter)"
      vector-effect="non-scaling-stroke"
      d="M10.21 59.114L1.914 32.072l98.963-30.376 5.542 13.02-8.774 7.353.336 11.895-87.771 25.15z"/>
  <path
      fill="var(--sign-fg-shadow,#fff)"
      d="M24.626 48.742l-2.845-9.273c-.035-.115.018-.215.133-.25l1.72-.528c.345-.106.477-.356.372-.7l-.71-2.313c-.106-.344-.356-.477-.7-.371l-7.495 2.299c-.344.105-.477.355-.371.7l.71 2.313c.105.344.355.477.7.371l1.72-.528c.115-.035.215.018.25.133l2.845 9.273c.105.344.355.477.7.371l2.6-.797c.344-.106.477-.356.37-.7zM32.06 46.461l-1.36-4.436c-.036-.114.017-.214.132-.25l1.568-.48c.114-.036.214.017.25.132l1.36 4.436c.106.344.356.477.7.371l2.581-.792c.345-.105.477-.355.372-.7L33.885 32.43c-.106-.344-.356-.477-.7-.371l-2.581.792c-.344.105-.477.355-.371.7l1.308 4.263c.035.115-.018.215-.133.25l-1.568.481c-.114.035-.214-.018-.25-.132l-1.308-4.264c-.105-.345-.355-.477-.7-.371l-2.58.791c-.345.106-.477.356-.371.7l3.777 12.314c.106.344.356.476.7.37l2.581-.791c.344-.106.477-.356.371-.7zM42.815 43.162l-3.778-12.314c-.106-.344-.356-.476-.7-.37l-2.543.78c-.344.105-.476.355-.37.7L39.2 44.27c.105.344.355.476.7.37l2.542-.78c.345-.105.477-.355.372-.699zM52.268 36.161c-1.73-4.887-6.486-1.231-7.102-3.239l-.159-.516s-.239-.847.717-1.14c.976-.3 1.235.75 1.235.75l.17.555c.106.344.355.477.7.37l2.485-.762c.344-.105.464-.33.352-.694l-.394-1.217c-.132-.294-1.041-3.53-5.554-2.146-4.474 1.373-3.574 4.444-3.51 4.926.147.75.41 1.402.41 1.402 1.62 4.733 6.309.721 7.03 3.073l.13.42s.315.824-.66 1.123c-.956.294-1.234-.542-1.234-.542l-.234-.764c-.106-.345-.356-.477-.7-.372l-2.486.763c-.344.105-.476.355-.37.7.134.44.335 1.026.419 1.23.217.436 1.06 3.525 5.534 2.152 4.513-1.384 3.721-4.238 3.638-4.714a9.32 9.32 0 00-.417-1.358zM65.576 36.325l.415-3.83c.01-.17.163-.217.267-.082l2.492 2.939c.196.232.429.308.735.214l2.198-.675c.325-.1.483-.336.422-.673l-2.019-12.853c-.054-.381-.31-.533-.673-.421l-2.6.797c-.326.1-.483.337-.422.674l.844 5.41c.034.178-.113.244-.223.09l-1.572-1.987c-.203-.252-.454-.32-.76-.227l-1.147.352c-.306.094-.475.292-.502.614l-.207 2.532c-.017.215-.163.217-.235.051l-2.316-4.958c-.144-.333-.401-.421-.726-.322l-2.6.798c-.364.112-.49.38-.322.726l5.537 11.774c.138.313.401.421.726.321l2.199-.674c.306-.094.456-.287.489-.59zM77.267 32.697l-.016-.874a.241.241 0 01.182-.223l3.155-.968a.241.241 0 01.276.083l.476.732c.184.258.422.352.728.258l2.428-.745c.383-.117.49-.38.277-.733l-7.149-11.3c-.17-.283-.446-.366-.752-.272l-3.079.945c-.306.094-.488.317-.47.646l.418 13.365c.021.412.258.57.64.452l2.429-.745c.306-.093.45-.305.457-.621zm-.135-8.013l1.837 2.784c.079.122.026.222-.108.263l-1.625.499c-.134.04-.234-.012-.237-.158l-.097-3.317c.005-.19.114-.244.23-.07zM90.61 28.499l-1.426-4.646a.548.548 0 01-.032-.242l.705-8.27c.042-.41-.207-.606-.608-.483l-2.543.78c-.306.094-.475.293-.502.615l-.24 3.17c-.005.19-.158.236-.269.082l-1.977-2.49c-.203-.252-.454-.32-.76-.227l-2.543.78c-.401.123-.497.425-.233.741l5.222 6.452c.068.084.086.142.109.218l1.425 4.646c.106.344.356.477.7.371l2.6-.797c.344-.106.477-.356.371-.7z"/>
  <path
      fill="var(--sign-fg,#333)"
      filter="var(--sign-fg-filter)"
      d="M23.626 47.742l-2.845-9.273c-.035-.115.018-.215.133-.25l1.72-.528c.345-.106.477-.356.372-.7l-.71-2.313c-.106-.344-.356-.477-.7-.371l-7.495 2.299c-.344.105-.477.355-.371.7l.71 2.313c.105.344.355.477.7.371l1.72-.528c.115-.035.215.018.25.133l2.845 9.273c.105.344.355.477.7.371l2.6-.797c.344-.106.477-.356.37-.7zM31.06 45.461l-1.36-4.436c-.036-.114.017-.214.132-.25l1.568-.48c.115-.036.214.017.25.132l1.36 4.436c.106.344.356.477.7.371l2.581-.792c.345-.105.477-.355.372-.7L32.885 31.43c-.106-.344-.356-.477-.7-.371l-2.581.792c-.344.105-.477.355-.371.7l1.308 4.263c.035.115-.018.215-.133.25l-1.568.481c-.114.035-.214-.018-.25-.132l-1.308-4.264c-.105-.345-.355-.477-.7-.371l-2.58.791c-.345.106-.477.356-.371.7l3.777 12.314c.106.344.356.476.7.37l2.581-.791c.344-.106.477-.356.371-.7zM41.815 42.162l-3.778-12.314c-.106-.344-.356-.476-.7-.37l-2.543.78c-.344.105-.476.355-.37.7L38.2 43.27c.105.344.355.476.7.37l2.542-.78c.345-.105.477-.355.372-.699zM51.268 35.161c-1.73-4.887-6.486-1.231-7.102-3.239l-.159-.516s-.239-.847.717-1.14c.976-.3 1.235.75 1.235.75l.17.555c.106.344.355.476.7.37l2.485-.762c.344-.105.464-.33.352-.694l-.394-1.217c-.132-.294-1.041-3.53-5.554-2.146-4.474 1.373-3.574 4.444-3.51 4.926.147.75.41 1.402.41 1.402 1.62 4.733 6.309.721 7.03 3.073l.13.42s.315.824-.66 1.123c-.956.294-1.234-.542-1.234-.542l-.234-.764c-.106-.345-.356-.477-.7-.372l-2.486.763c-.344.105-.476.355-.37.7.134.44.335 1.026.419 1.23.217.436 1.06 3.525 5.534 2.152 4.513-1.384 3.721-4.238 3.638-4.714a9.32 9.32 0 00-.417-1.358zM64.576 35.325l.415-3.83c.01-.17.163-.217.267-.082l2.492 2.939c.196.232.429.308.735.214l2.198-.675c.325-.1.483-.336.422-.673l-2.019-12.853c-.054-.381-.31-.533-.673-.421l-2.6.797c-.326.1-.483.337-.422.674l.844 5.41c.034.178-.113.244-.223.09l-1.572-1.987c-.203-.252-.454-.32-.76-.227l-1.147.352c-.306.094-.475.292-.502.614l-.207 2.532c-.017.215-.163.217-.235.051l-2.316-4.958c-.144-.333-.401-.421-.726-.322l-2.6.798c-.364.112-.49.38-.322.726l5.537 11.774c.138.313.401.421.726.321l2.199-.674c.306-.094.456-.287.489-.59zM76.267 31.697l-.016-.874a.241.241 0 01.182-.223l3.155-.968a.241.241 0 01.276.083l.476.732c.184.258.422.352.728.258l2.428-.745c.383-.117.49-.38.277-.733l-7.149-11.3c-.17-.283-.446-.366-.752-.272l-3.079.945c-.306.094-.488.317-.47.646l.418 13.365c.021.412.258.57.64.452l2.429-.745c.306-.093.45-.305.457-.621zm-.135-8.013l1.837 2.784c.079.122.026.222-.108.263l-1.625.499c-.134.04-.234-.012-.237-.158l-.097-3.317c.005-.19.114-.244.23-.07zM89.61 27.499l-1.426-4.646a.548.548 0 01-.032-.242l.705-8.27c.042-.41-.207-.606-.608-.483l-2.543.78c-.306.094-.475.293-.502.615l-.24 3.17c-.005.19-.158.236-.269.082l-1.977-2.49c-.203-.252-.454-.32-.76-.227l-2.543.78c-.401.123-.497.425-.233.741l5.222 6.452c.068.084.086.142.109.218l1.425 4.646c.106.344.356.477.7.371l2.6-.797c.344-.106.477-.356.371-.7z"/>
</svg>
