<svg xmlns="http://www.w3.org/2000/svg"
    fill="none"
    width="100%"
    height="100%"
    viewBox="0 0 89 52"
>
  <path
      fill="var(--eye-bg,#fff)"
      d="M42.467 9.82c1.185 5.395-2.227 10.729-7.621 11.914-5.394 1.185-10.728-2.227-11.913-7.621C21.748 8.719 25.16 3.385 30.553 2.2c5.395-1.185 10.729 2.227 11.914 7.62zM66.98 9.554c1.186 5.394-2.226 10.728-7.62 11.913-5.395 1.185-10.728-2.227-11.913-7.621-1.186-5.394 2.226-10.728 7.62-11.913C60.463.748 65.796 4.16 66.982 9.554z"/>
  <path
      fill="var(--eye-fill,#fdedb3)"
      d="M43.962 13.319c1.185 5.393-2.226 10.725-7.619 11.91-5.393 1.186-10.726-2.226-11.91-7.619-1.185-5.393 2.226-10.725 7.619-11.91 5.393-1.185 10.726 2.226 11.91 7.619zM68.476 13.052c1.185 5.393-2.226 10.726-7.62 11.91-5.392 1.186-10.725-2.226-11.91-7.619-1.185-5.393 2.227-10.725 7.62-11.91 5.393-1.185 10.725 2.226 11.91 7.619z"/>
  <path
      stroke="var(--stroke,#333)"
      stroke-width="3"
      stroke-linejoin="round"
      stroke-linecap="round"
      stroke-dasharray="var(--stroke-dasharray,0)"
      filter="var(--stroke-filter)"
      vector-effect="non-scaling-stroke"
      d="M42.467 9.82c1.185 5.395-2.227 10.729-7.621 11.914-5.394 1.185-10.728-2.227-11.913-7.621C21.748 8.719 25.16 3.385 30.553 2.2c5.395-1.185 10.729 2.227 11.914 7.62zM66.98 9.554c1.186 5.394-2.226 10.728-7.62 11.913-5.395 1.185-10.728-2.227-11.913-7.621-1.186-5.394 2.226-10.728 7.62-11.913C60.463.748 65.796 4.16 66.982 9.554z"/>
  <path
      fill="var(--pupil-shadow,#fff)"
      d="M40.37 13.037a2 2 0 11-3.906.858 2 2 0 013.907-.858zM54.903 13.94a2 2 0 11-3.907.858 2 2 0 013.907-.858z"/>
  <path
      fill="var(--pupil-fill,#333)"
      d="M39.37 12.037a2 2 0 11-3.906.858 2 2 0 013.907-.858zM53.903 12.94a2 2 0 11-3.907.858 2 2 0 013.907-.858z"/>
  <path
      fill="var(--teeth-fill,#fff)"
      d="M45.5 50.5c37.2 0 43.167-23 41.5-34.5 0 0-15.064 16.44-41.5 16.5-27.013.06-43-16.5-43-16.5-.5 11.5 5.8 34.5 43 34.5z"/>
  <path
      stroke="var(--teeth-shadow,#efefef)"
      stroke-width="3"
      stroke-linejoin="round"
      stroke-linecap="round"
      stroke-dasharray="var(--stroke-dasharray,0)"
      filter="var(--stroke-filter)"
      d="M16.091 25.819L11.5 37M25 29.5L21 45m15-12.5L34 49m14-16l.5 17.5m11.5-19L64 48m7-20.5l6.5 13M81 22l4.5 7.5"/>
  <path
      stroke="var(--stroke,#333)"
      stroke-width="3"
      stroke-linejoin="round"
      stroke-linecap="round"
      stroke-dasharray="var(--stroke-dasharray,0)"
      filter="var(--stroke-filter)"
      d="M14.091 24.82L9.5 36m13.091-6.577L18.5 44m14.591-11L31 49m15-15v16.5M58 33l3 15.5M69 29l6.5 13M79 24l5 7.5M87 16c1.667 11.5-4.3 34.5-41.5 34.5S2 27.5 2.5 16c0 0 15.987 16.56 43 16.5C71.936 32.44 87 16 87 16z"/>
</svg>
