<svg width="158" height="31" xmlns="http://www.w3.org/2000/svg"><g fill="none" fill-rule="evenodd"><path d="M32.88 4H78v26H29.026l-5.237-4.967H7.376L4 21.166c3.603-4.423 7.456-7.95 11.558-10.579C21.046 7.071 26.82 4.875 32.88 4z" fill="#BCF2CD"/><path d="M53.507 7l-4.203 10-41.575-.002c2.5-2.53 5.11-4.668 7.83-6.41a46.578 46.578 0 016.729-3.59L53.508 7zM59.336 7h7.919l1.776 10H55z" fill="#69C386" opacity=".4"/><path d="M75 1v26H25.425l-5.237-4.967H4.878L1.27 17.197c3.387-4.054 6.994-7.311 10.827-9.768C17.438 4.007 23.056 1.862 28.952 1H75z" vector-effect="non-scaling-stroke" stroke="#212121" stroke-width="2"/><g><path d="M129.12 4H84v26h48.974l5.237-4.967h16.413L157 21.166c-2.936-4.423-6.456-7.95-10.558-10.579C140.954 7.071 135.18 4.875 129.12 4z" fill="#BCF2CD"/><path d="M139.712 6.998c2.289.985 4.532 2.181 6.73 3.59 2.72 1.743 5.183 3.88 7.39 6.412h-49.63L100 7l39.712-.002zM94.695 7h-7.92L85 17h14.03z" fill="#69C386" opacity=".4"/><path d="M80 1v26h49.575l5.237-4.967h15.31l3.607-4.836c-3.387-4.054-6.994-7.311-10.827-9.768-5.34-3.422-10.958-5.567-16.854-6.429h0H80z" vector-effect="non-scaling-stroke" stroke="#212121" stroke-width="2"/></g></g></svg>
