<svg viewBox="0 0 78 30" fill="none" xmlns="http://www.w3.org/2000/svg"><path fill-rule="evenodd" clip-rule="evenodd" d="M32.61 4h45.12v26H28.756l-5.237-4.967H7.106L3.73 21.166c3.603-4.423 7.456-7.95 11.558-10.579C20.776 7.071 26.55 4.875 32.61 4z" fill="var(--color-accent-2,#bcf2cd)"/><path opacity=".4" fill-rule="evenodd" clip-rule="evenodd" d="M53.237 7l-4.203 10-41.575-.002c2.5-2.53 5.11-4.668 7.83-6.41a46.577 46.577 0 016.729-3.59L53.238 7h-.001zm5.829 0h7.919l1.776 10H54.73l4.336-10z" fill="var(--color-accent-2-darker,#69c386)"/><path clip-rule="evenodd" d="M74.73 1v26H25.155l-5.237-4.967H4.608L1 17.197c3.387-4.054 6.994-7.311 10.827-9.768C17.168 4.007 22.786 1.862 28.682 1H74.73z" stroke="var(--color-fg,#333)" stroke-width="2" stroke-linejoin="round"/></svg>
