<svg width="78" height="30" fill="none" xmlns="http://www.w3.org/2000/svg"><path fill-rule="evenodd" clip-rule="evenodd" d="M50.12 4H5v26h48.974l5.237-4.967h16.413L78 21.166c-2.936-4.423-6.456-7.95-10.558-10.579C61.954 7.071 56.18 4.875 50.12 4z" fill="#BCF2CD"/><path opacity=".4" fill-rule="evenodd" clip-rule="evenodd" d="M60.712 6.998a46.587 46.587 0 016.73 3.59c2.72 1.743 5.183 3.88 7.39 6.412h-49.63L21 7l39.712-.002zM15.695 7h-7.92L6 17h14.03L15.695 7z" fill="#69C386"/><path clip-rule="evenodd" d="M1 1v26h49.575l5.237-4.967h15.31l3.607-4.836c-3.387-4.054-6.994-7.311-10.827-9.768C58.562 4.007 52.944 1.862 47.048 1H1z" stroke="#212121" stroke-width="2" stroke-linejoin="round"/></svg>