<svg viewBox="0 0 470 276" xmlns="http://www.w3.org/2000/svg"><g fill="none" fill-rule="evenodd"><path d="M390 211a2 2 0 012 2v7h62a4 4 0 014 4v33a4 4 0 01-4 4H8a4 4 0 01-4-4v-33a4 4 0 014-4h159v-7a2 2 0 014 0v7h160v-7a2 2 0 014 0v7h53v-7a2 2 0 012-2zm64 13H8v33h446v-33zM169 53a2 2 0 012 2v63a2 2 0 01-4 0V55a2 2 0 012-2zm164 33a2 2 0 012 2v30a2 2 0 01-4 0V88a2 2 0 012-2zm57-25a2 2 0 012 2v55a2 2 0 01-4 0V63a2 2 0 012-2zm-16.93 27c.846 0 1.593.542 1.843 1.337a1.883 1.883 0 01-.75 2.128L360.41 97.5l13.752 6.035a1.883 1.883 0 01.751 2.128A1.926 1.926 0 01373.07 107l-32.254-.003-.264-.034-.136-.032-.247-.085-.274-.142-.113-.077-.148-.119-.101-.097-.107-.12-.076-.1-.096-.15-.087-.167-.054-.134-.043-.13-.032-.135-.034-.257-.003-.064.003-15.372.017-.16.038-.187.039-.133.066-.168.074-.148.059-.099.143-.194.092-.103.104-.1.146-.117.133-.09.176-.094.144-.062.09-.031.18-.05.186-.031.19-.014L373.07 88zM39 0a2 2 0 012 2v81a2 2 0 11-4 0V2a2 2 0 012-2zm391.07 63c.846 0 1.593.542 1.843 1.337a1.883 1.883 0 01-.75 2.128L417.41 72.5l13.752 6.035a1.883 1.883 0 01.751 2.128A1.926 1.926 0 01430.07 82l-32.254-.003-.264-.034-.136-.032-.247-.085-.274-.142-.113-.077-.148-.119-.101-.097-.107-.12-.076-.1-.096-.15-.087-.167-.054-.134-.043-.13-.032-.135-.034-.257-.003-.064.003-15.372.017-.16.038-.187.039-.133.066-.168.074-.148.059-.099.143-.194.092-.103.104-.1.146-.117.133-.09.176-.094.144-.062.09-.031.18-.05.186-.031.19-.014L430.07 63zm-221-8c.846 0 1.593.542 1.843 1.337a1.883 1.883 0 01-.75 2.128L196.41 64.5l13.752 6.035a1.883 1.883 0 01.751 2.128A1.926 1.926 0 01209.07 74l-32.254-.003-.264-.034-.136-.032-.247-.085-.274-.142-.113-.077-.148-.119-.101-.097-.107-.12-.076-.1-.096-.15-.087-.167-.054-.134-.043-.13-.032-.135-.034-.257-.003-.064.003-15.372.017-.16.038-.187.039-.133.066-.168.074-.148.059-.099.143-.194.092-.103.104-.1.146-.117.133-.09.176-.094.144-.062.09-.031.18-.05.186-.031.19-.014L209.07 55zM86.527 1.58a1.899 1.899 0 011.075 3.465L70.069 15.08l17.533 10.035a1.899 1.899 0 01-1.075 3.465H46.852l-.188-.015-.184-.032-.133-.035-.197-.072-.206-.104-.175-.115-.145-.119-.135-.135-.156-.198-.083-.133-.085-.168-.038-.09-.045-.131-.035-.134-.029-.157-.017-.208.003-23.372.016-.16.027-.14.035-.135.029-.087.113-.255.07-.12.107-.152.09-.108.134-.135.185-.146.195-.12.171-.081.128-.047.086-.026.137-.033.18-.027.145-.01h39.675zM392 261v12.366a2 2 0 01-4 0V261h-53v12.366a2 2 0 01-4 0V261H171v12.366a2 2 0 01-4 0V261H41v12.366a2 2 0 01-4 0V261h355z" fill="#333"/><path fill="#FFF" d="M8 224h446v33H8z"/><path d="M20.088 252c2.773 0 4.816-.928 6.128-2.784 1.312-1.856 1.968-4.661 1.968-8.416 0-3.755-.656-6.56-1.968-8.416-1.312-1.856-3.355-2.784-6.128-2.784h-6.08c-.405 0-.704.101-.896.304-.192.203-.288.528-.288.976v19.84c0 .448.096.773.288.976.192.203.49.304.896.304h6.08zm-.16-4.192H17.88v-14.016h2.048c1.13 0 1.941.528 2.432 1.584.49 1.056.736 2.864.736 5.424 0 2.56-.245 4.368-.736 5.424-.49 1.056-1.301 1.584-2.432 1.584zm19.816 4.448c2.41 0 4.293-.597 5.648-1.792 1.355-1.195 2.032-2.87 2.032-5.024v-14.88c0-.683-.619-1.024-1.856-1.024H44.32c-1.237 0-1.856.341-1.856 1.024v14.56c0 .853-.25 1.557-.752 2.112-.501.555-1.157.832-1.968.832-.832 0-1.493-.272-1.984-.816-.49-.544-.736-1.253-.736-2.128v-14.56c0-.683-.619-1.024-1.856-1.024h-1.28c-1.237 0-1.856.341-1.856 1.024v14.88c0 2.155.683 3.83 2.048 5.024 1.365 1.195 3.253 1.792 5.664 1.792zm14.92-.192c.661 0 1.136-.08 1.424-.24.288-.16.432-.421.432-.784v-11.072c0-.405-.064-.992-.192-1.76l.128-.032c.064.15.16.379.288.688.128.31.256.581.384.816l2.368 4.416c.15.277.32.475.512.592.192.117.448.176.768.176h.544c.32 0 .576-.059.768-.176.192-.117.363-.315.512-.592l2.368-4.416c.32-.597.555-1.099.704-1.504l.128.032c-.15.661-.224 1.248-.224 1.76v11.072c0 .363.144.624.432.784.288.16.763.24 1.424.24h1.088c.661 0 1.136-.08 1.424-.24.288-.16.432-.421.432-.784v-20.48c0-.363-.144-.624-.432-.784-.288-.16-.763-.24-1.424-.24h-.992c-.512 0-.917.07-1.216.208a1.514 1.514 0 00-.704.688l-3.968 7.52c-.235.448-.427.96-.576 1.536-.192-.64-.395-1.152-.608-1.536l-3.968-7.52c-.17-.32-.405-.55-.704-.688-.299-.139-.704-.208-1.216-.208h-.992c-.661 0-1.136.08-1.424.24-.288.16-.432.421-.432.784v20.48c0 .363.144.624.432.784.288.16.763.24 1.424.24h1.088zm23.208 0c1.28 0 1.92-.341 1.92-1.024v-7.424H82c.725 0 1.547-.181 2.464-.544.917-.363 1.75-1.061 2.496-2.096.747-1.035 1.12-2.49 1.12-4.368 0-2.73-.645-4.581-1.936-5.552-1.29-.97-2.779-1.456-4.464-1.456h-5.536c-.448 0-.773.101-.976.304-.203.203-.304.528-.304.976v20.16c0 .683.64 1.024 1.92 1.024h1.088zm3.584-12.576H79.76v-5.696h1.696c.49 0 .917.208 1.28.624.363.416.544 1.147.544 2.192 0 1.067-.181 1.813-.544 2.24-.363.427-.79.64-1.28.64zM101.112 252c.341 0 .587-.128.736-.384.15-.256.224-.661.224-1.216v-.992c0-.555-.075-.96-.224-1.216-.15-.256-.395-.384-.736-.384h-4.768V230.56c0-.683-.619-1.024-1.856-1.024h-1.28c-1.237 0-1.856.341-1.856 1.024v20.16c0 .448.096.773.288.976.192.203.49.304.896.304h8.576zm7.016.096c1.216 0 1.824-.352 1.824-1.056v-20.48c0-.704-.608-1.056-1.824-1.056h-1.344c-1.237 0-1.856.352-1.856 1.056v20.48c0 .704.619 1.056 1.856 1.056h1.344zm8.808-.032c1.237 0 1.856-.341 1.856-1.024v-10.528c0-.47-.085-1.195-.256-2.176l.16-.096c.384 1.045.672 1.728.864 2.048l6.112 10.88c.17.363.395.603.672.72.277.117.63.176 1.056.176h.608c1.237 0 1.856-.341 1.856-1.024v-20.48c0-.683-.619-1.024-1.856-1.024h-.768c-1.237 0-1.856.341-1.856 1.024v10.208c0 .576.085 1.419.256 2.528l-.128.064c-.427-1.11-.79-1.941-1.088-2.496l-5.76-10.432c-.17-.363-.384-.603-.64-.72-.256-.117-.597-.176-1.024-.176h-.832c-1.237 0-1.856.341-1.856 1.024v20.48c0 .683.619 1.024 1.856 1.024h.768zm25.512.192c.875 0 1.792-.107 2.752-.32.96-.213 1.765-.517 2.416-.912.65-.395.976-.837.976-1.328v-9.536c0-.448-.096-.773-.288-.976-.192-.203-.49-.304-.896-.304h-5.28c-.32 0-.555.128-.704.384-.15.256-.224.661-.224 1.216v1.024c0 .555.075.96.224 1.216.15.256.384.384.704.384h1.632v4.672c-.363.085-.8.128-1.312.128-1.195 0-2.096-.539-2.704-1.616-.608-1.077-.912-2.917-.912-5.52 0-2.432.32-4.224.96-5.376.64-1.152 1.643-1.728 3.008-1.728.619 0 1.152.059 1.6.176.448.117.853.256 1.216.416.363.16.587.24.672.24.256 0 .544-.176.864-.528a5.05 5.05 0 00.816-1.232c.224-.47.336-.843.336-1.12 0-.363-.277-.72-.832-1.072-.555-.352-1.28-.64-2.176-.864a11.436 11.436 0 00-2.784-.336c-3.008 0-5.227.939-6.656 2.816-1.43 1.877-2.144 4.736-2.144 8.576 0 3.947.71 6.853 2.128 8.72 1.419 1.867 3.621 2.8 6.608 2.8zm15.336 0c1.536 0 2.827-.31 3.872-.928 1.045-.619 1.824-1.435 2.336-2.448.512-1.013.768-2.117.768-3.312 0-1.6-.325-2.89-.976-3.872-.65-.981-1.712-1.899-3.184-2.752a12.118 12.118 0 00-.864-.448c-.896-.47-1.547-.901-1.952-1.296s-.608-.976-.608-1.744c0-.49.165-.928.496-1.312.33-.384.944-.576 1.84-.576.555 0 1.248.16 2.08.48.448.17.757.256.928.256.363 0 .667-.31.912-.928.245-.619.368-1.205.368-1.76 0-.47-.192-.843-.576-1.12-.448-.32-1.077-.592-1.888-.816a8.66 8.66 0 00-2.304-.336c-1.301 0-2.459.261-3.472.784a5.816 5.816 0 00-2.384 2.24c-.576.97-.864 2.107-.864 3.408 0 1.621.368 2.923 1.104 3.904.736.981 1.904 1.93 3.504 2.848 1.045.555 1.813 1.061 2.304 1.52.49.459.736 1.093.736 1.904 0 .768-.256 1.312-.768 1.632-.512.32-1.11.48-1.792.48-.64 0-1.376-.213-2.208-.64-.17-.085-.443-.235-.816-.448-.373-.213-.645-.32-.816-.32-.384 0-.736.31-1.056.928-.32.619-.48 1.227-.48 1.824 0 .363.139.736.416 1.12.47.533 1.216.955 2.24 1.264a10.68 10.68 0 003.104.464zm9.672 1.744c.448 0 1.003-.39 1.664-1.168.661-.779 1.232-1.75 1.712-2.912.48-1.163.72-2.31.72-3.44 0-.427-.15-.768-.448-1.024-.299-.256-.768-.384-1.408-.384h-.64c-1.237 0-1.856.47-1.856 1.408 0 1.11-.07 2.048-.208 2.816a20.106 20.106 0 01-.56 2.304l-.192.64c-.021.17-.059.363-.112.576-.053.213-.08.373-.08.48 0 .235.15.41.448.528.299.117.619.176.96.176zm15.888-1.936c1.28 0 1.92-.341 1.92-1.024v-7.424h2.208c.725 0 1.547-.181 2.464-.544.917-.363 1.75-1.061 2.496-2.096.747-1.035 1.12-2.49 1.12-4.368 0-2.73-.645-4.581-1.936-5.552-1.29-.97-2.779-1.456-4.464-1.456h-5.536c-.448 0-.773.101-.976.304-.203.203-.304.528-.304.976v20.16c0 .683.64 1.024 1.92 1.024h1.088zm3.584-12.576h-1.696v-5.696h1.696c.49 0 .917.208 1.28.624.363.416.544 1.147.544 2.192 0 1.067-.181 1.813-.544 2.24-.363.427-.79.64-1.28.64zm12.936 12.608c1.216 0 1.824-.352 1.824-1.056v-20.48c0-.704-.608-1.056-1.824-1.056h-1.344c-1.237 0-1.856.352-1.856 1.056v20.48c0 .704.619 1.056 1.856 1.056h1.344zm8.136-.032c.576 0 .987-.032 1.232-.096s.421-.245.528-.544l2.88-8.128 2.624 8.16c.128.405.715.608 1.76.608h1.376c1.259 0 1.888-.203 1.888-.608 0-.15-.085-.416-.256-.8l-4.384-10.272 4.352-9.44c.17-.384.256-.65.256-.8 0-.405-.63-.608-1.888-.608h-1.504c-.533 0-.944.043-1.232.128-.288.085-.475.256-.56.512l-2.432 7.52-2.24-7.552c-.064-.235-.245-.395-.544-.48-.299-.085-.693-.128-1.184-.128h-1.504c-.619 0-1.093.053-1.424.16-.33.107-.496.256-.496.448 0 .107.037.245.112.416.075.17.133.299.176.384l4.032 9.376-4.64 10.336c-.17.405-.256.672-.256.8 0 .405.63.608 1.888.608H208zm26.088-.064c.32 0 .55-.128.688-.384.139-.256.208-.661.208-1.216v-.992c0-.555-.07-.96-.208-1.216-.139-.256-.368-.384-.688-.384h-5.664v-5.184h4.992c.32 0 .555-.128.704-.384.15-.256.224-.661.224-1.216v-.992c0-.555-.075-.96-.224-1.216-.15-.256-.384-.384-.704-.384h-4.992v-4.64h5.632c.32 0 .555-.128.704-.384.15-.256.224-.661.224-1.216v-.992c0-.555-.075-.96-.224-1.216-.15-.256-.384-.384-.704-.384h-9.44c-.405 0-.704.101-.896.304-.192.203-.288.528-.288.976v19.84c0 .448.096.773.288.976.192.203.49.304.896.304h9.472zm14.696 0c.341 0 .587-.128.736-.384.15-.256.224-.661.224-1.216v-.992c0-.555-.075-.96-.224-1.216-.15-.256-.395-.384-.736-.384h-4.768V230.56c0-.683-.619-1.024-1.856-1.024h-1.28c-1.237 0-1.856.341-1.856 1.024v20.16c0 .448.096.773.288.976.192.203.49.304.896.304h8.576zm9.064.256c1.536 0 2.827-.31 3.872-.928 1.045-.619 1.824-1.435 2.336-2.448.512-1.013.768-2.117.768-3.312 0-1.6-.325-2.89-.976-3.872-.65-.981-1.712-1.899-3.184-2.752a12.118 12.118 0 00-.864-.448c-.896-.47-1.547-.901-1.952-1.296s-.608-.976-.608-1.744c0-.49.165-.928.496-1.312.33-.384.944-.576 1.84-.576.555 0 1.248.16 2.08.48.448.17.757.256.928.256.363 0 .667-.31.912-.928.245-.619.368-1.205.368-1.76 0-.47-.192-.843-.576-1.12-.448-.32-1.077-.592-1.888-.816a8.66 8.66 0 00-2.304-.336c-1.301 0-2.459.261-3.472.784a5.816 5.816 0 00-2.384 2.24c-.576.97-.864 2.107-.864 3.408 0 1.621.368 2.923 1.104 3.904.736.981 1.904 1.93 3.504 2.848 1.045.555 1.813 1.061 2.304 1.52.49.459.736 1.093.736 1.904 0 .768-.256 1.312-.768 1.632-.512.32-1.11.48-1.792.48-.64 0-1.376-.213-2.208-.64-.17-.085-.443-.235-.816-.448-.373-.213-.645-.32-.816-.32-.384 0-.736.31-1.056.928-.32.619-.48 1.227-.48 1.824 0 .363.139.736.416 1.12.47.533 1.216.955 2.24 1.264a10.68 10.68 0 003.104.464zM267.52 254c.448 0 1.003-.39 1.664-1.168.661-.779 1.232-1.75 1.712-2.912.48-1.163.72-2.31.72-3.44 0-.427-.15-.768-.448-1.024-.299-.256-.768-.384-1.408-.384h-.64c-1.237 0-1.856.47-1.856 1.408 0 1.11-.07 2.048-.208 2.816a20.106 20.106 0 01-.56 2.304l-.192.64c-.021.17-.059.363-.112.576-.053.213-.08.373-.08.48 0 .235.15.41.448.528.299.117.619.176.96.176zm24.944-1.744c1.877 0 2.816-.523 2.816-1.568 0-.277-.09-.73-.272-1.36-.181-.63-.4-.944-.656-.944a.738.738 0 00-.256.064.856.856 0 01-.32.064c-.235 0-.379-.096-.432-.288-.053-.192-.08-.555-.08-1.088v-5.024h.704c.32 0 .555-.128.704-.384.15-.256.224-.661.224-1.216v-.544c0-.555-.075-.96-.224-1.216-.15-.256-.384-.384-.704-.384h-.704v-3.04c0-.683-.533-1.024-1.6-1.024h-1.12c-1.088 0-1.664.341-1.728 1.024l-.384 3.04h-2.016c-.597 0-1.104-.245-1.52-.736-.416-.49-.624-1.13-.624-1.92 0-.81.117-1.45.352-1.92s.576-.704 1.024-.704c.213 0 .443.037.688.112.245.075.4.112.464.112.256 0 .501-.256.736-.768s.352-1.13.352-1.856c0-.405-.341-.73-1.024-.976a6.385 6.385 0 00-2.176-.368c-1.664 0-2.965.501-3.904 1.504-.939 1.003-1.408 2.368-1.408 4.096 0 1.11.192 2.07.576 2.88.384.81.939 1.408 1.664 1.792v.128c-1.088.448-1.83 1.147-2.224 2.096-.395.95-.592 2.16-.592 3.632 0 2.176.49 3.85 1.472 5.024.981 1.173 2.443 1.76 4.384 1.76.981 0 1.803-.09 2.464-.272.661-.181 1.472-.517 2.432-1.008.32.448.704.773 1.152.976.448.203 1.035.304 1.76.304zm-7.008-3.744c-.704 0-1.184-.25-1.44-.752-.256-.501-.384-1.285-.384-2.352 0-1.152.17-1.99.512-2.512.341-.523.992-.784 1.952-.784h2.336v5.632c-.661.299-1.205.501-1.632.608-.427.107-.875.16-1.344.16zm24.112 3.552c1.237 0 1.856-.341 1.856-1.024v-17.248h3.584c.341 0 .587-.128.736-.384.15-.256.224-.661.224-1.216v-.992c0-.555-.075-.96-.224-1.216-.15-.256-.395-.384-.736-.384h-12.16c-.32 0-.555.128-.704.384-.15.256-.224.661-.224 1.216v.992c0 .555.075.96.224 1.216.15.256.384.384.704.384h3.552v17.248c0 .683.619 1.024 1.856 1.024h1.312zm12.68 0c1.216 0 1.824-.341 1.824-1.024v-8.352h5.472v8.352c0 .683.619 1.024 1.856 1.024h1.312c1.237 0 1.856-.341 1.856-1.024v-20.48c0-.683-.619-1.024-1.856-1.024H331.4c-1.237 0-1.856.341-1.856 1.024v7.904h-5.472v-7.904c0-.683-.608-1.024-1.824-1.024h-1.344c-1.237 0-1.856.341-1.856 1.024v20.48c0 .683.619 1.024 1.856 1.024h1.344zm27.688-.064c.32 0 .55-.128.688-.384.139-.256.208-.661.208-1.216v-.992c0-.555-.07-.96-.208-1.216-.139-.256-.368-.384-.688-.384h-5.664v-5.184h4.992c.32 0 .555-.128.704-.384.15-.256.224-.661.224-1.216v-.992c0-.555-.075-.96-.224-1.216-.15-.256-.384-.384-.704-.384h-4.992v-4.64h5.632c.32 0 .555-.128.704-.384.15-.256.224-.661.224-1.216v-.992c0-.555-.075-.96-.224-1.216-.15-.256-.384-.384-.704-.384h-9.44c-.405 0-.704.101-.896.304-.192.203-.288.528-.288.976v19.84c0 .448.096.773.288.976.192.203.49.304.896.304h9.472zm13.104.064c.661 0 1.136-.08 1.424-.24.288-.16.432-.421.432-.784v-11.072c0-.405-.064-.992-.192-1.76l.128-.032c.064.15.16.379.288.688.128.31.256.581.384.816l2.368 4.416c.15.277.32.475.512.592.192.117.448.176.768.176h.544c.32 0 .576-.059.768-.176.192-.117.363-.315.512-.592l2.368-4.416c.32-.597.555-1.099.704-1.504l.128.032c-.15.661-.224 1.248-.224 1.76v11.072c0 .363.144.624.432.784.288.16.763.24 1.424.24h1.088c.661 0 1.136-.08 1.424-.24.288-.16.432-.421.432-.784v-20.48c0-.363-.144-.624-.432-.784-.288-.16-.763-.24-1.424-.24h-.992c-.512 0-.917.07-1.216.208a1.514 1.514 0 00-.704.688l-3.968 7.52c-.235.448-.427.96-.576 1.536-.192-.64-.395-1.152-.608-1.536l-3.968-7.52c-.17-.32-.405-.55-.704-.688-.299-.139-.704-.208-1.216-.208h-.992c-.661 0-1.136.08-1.424.24-.288.16-.432.421-.432.784v20.48c0 .363.144.624.432.784.288.16.763.24 1.424.24h1.088zm28.04.192c2.73 0 4.805-.928 6.224-2.784 1.419-1.856 2.128-4.747 2.128-8.672 0-3.925-.71-6.816-2.128-8.672-1.419-1.856-3.493-2.784-6.224-2.784-5.59 0-8.384 3.819-8.384 11.456s2.795 11.456 8.384 11.456zm.032-4.192c-.768 0-1.392-.213-1.872-.64-.48-.427-.843-1.173-1.088-2.24-.245-1.067-.368-2.528-.368-4.384 0-1.856.123-3.312.368-4.368.245-1.056.608-1.797 1.088-2.224.48-.427 1.104-.64 1.872-.64s1.387.213 1.856.64c.47.427.821 1.168 1.056 2.224.235 1.056.352 2.512.352 4.368 0 1.877-.117 3.344-.352 4.4-.235 1.056-.587 1.797-1.056 2.224-.47.427-1.088.64-1.856.64zm19.88 4.192c2.41 0 4.293-.597 5.648-1.792 1.355-1.195 2.032-2.87 2.032-5.024v-14.88c0-.683-.619-1.024-1.856-1.024h-1.248c-1.237 0-1.856.341-1.856 1.024v14.56c0 .853-.25 1.557-.752 2.112-.501.555-1.157.832-1.968.832-.832 0-1.493-.272-1.984-.816-.49-.544-.736-1.253-.736-2.128v-14.56c0-.683-.619-1.024-1.856-1.024h-1.28c-1.237 0-1.856.341-1.856 1.024v14.88c0 2.155.683 3.83 2.048 5.024 1.365 1.195 3.253 1.792 5.664 1.792zm16.904 0c1.536 0 2.827-.31 3.872-.928 1.045-.619 1.824-1.435 2.336-2.448.512-1.013.768-2.117.768-3.312 0-1.6-.325-2.89-.976-3.872-.65-.981-1.712-1.899-3.184-2.752a12.118 12.118 0 00-.864-.448c-.896-.47-1.547-.901-1.952-1.296s-.608-.976-.608-1.744c0-.49.165-.928.496-1.312.33-.384.944-.576 1.84-.576.555 0 1.248.16 2.08.48.448.17.757.256.928.256.363 0 .667-.31.912-.928.245-.619.368-1.205.368-1.76 0-.47-.192-.843-.576-1.12-.448-.32-1.077-.592-1.888-.816a8.66 8.66 0 00-2.304-.336c-1.301 0-2.459.261-3.472.784a5.816 5.816 0 00-2.384 2.24c-.576.97-.864 2.107-.864 3.408 0 1.621.368 2.923 1.104 3.904.736.981 1.904 1.93 3.504 2.848 1.045.555 1.813 1.061 2.304 1.52.49.459.736 1.093.736 1.904 0 .768-.256 1.312-.768 1.632-.512.32-1.11.48-1.792.48-.64 0-1.376-.213-2.208-.64-.17-.085-.443-.235-.816-.448-.373-.213-.645-.32-.816-.32-.384 0-.736.31-1.056.928-.32.619-.48 1.227-.48 1.824 0 .363.139.736.416 1.12.47.533 1.216.955 2.24 1.264a10.68 10.68 0 003.104.464zM448.8 252c.32 0 .55-.128.688-.384.139-.256.208-.661.208-1.216v-.992c0-.555-.07-.96-.208-1.216-.139-.256-.368-.384-.688-.384h-5.664v-5.184h4.992c.32 0 .555-.128.704-.384.15-.256.224-.661.224-1.216v-.992c0-.555-.075-.96-.224-1.216-.15-.256-.384-.384-.704-.384h-4.992v-4.64h5.632c.32 0 .555-.128.704-.384.15-.256.224-.661.224-1.216v-.992c0-.555-.075-.96-.224-1.216-.15-.256-.384-.384-.704-.384h-9.44c-.405 0-.704.101-.896.304-.192.203-.288.528-.288.976v19.84c0 .448.096.773.288.976.192.203.49.304.896.304h9.472z" fill="#333" fill-rule="nonzero"/><path d="M73 89a4 4 0 014 4v116a4 4 0 01-4 4H4a4 4 0 01-4-4V93a4 4 0 014-4h69zm61 35a4 4 0 014 4v75a4 4 0 01-4 4H85a4 4 0 01-4-4v-75a4 4 0 014-4h49zm54.66 0a4 4 0 014 4v75a4 4 0 01-4 4H146a4 4 0 01-4-4v-75a4 4 0 014-4h42.66zm54.32 0a4 4 0 014 4v75a4 4 0 01-4 4H201a4 4 0 01-4-4v-75a4 4 0 014-4h41.98zm56.98 0a4 4 0 014 4v75a4 4 0 01-4 4H255a4 4 0 01-4-4v-75a4 4 0 014-4h44.96zm54.6 0a4 4 0 014 4v75a4 4 0 01-4 4H312a4 4 0 01-4-4v-75a4 4 0 014-4h42.56zm54.42 0a4 4 0 014 4v75a4 4 0 01-4 4H367a4 4 0 01-4-4v-75a4 4 0 014-4h41.98zm56.31 0a4 4 0 014 4v75a4 4 0 01-4 4H421a4 4 0 01-4-4v-75a4 4 0 014-4h44.29zm-350.253 8h-10.944l-.162.005c-.631.041-1.058.328-1.28.86l-.051.139-.043.148-13.536 64.608-.017.163c-.024.371.061.669.257.893.168.192.4.312.693.36l.153.018.162.006h7.2l.162-.005c.632-.041 1.059-.328 1.28-.86l.052-.139.042-.148 1.92-9.024.043-.128c.107-.282.277-.454.51-.517l.104-.02.111-.007h11.904l.112.007c.25.031.439.172.564.423l.05.114.042.128 1.824 8.928.043.16c.184.622.553.977 1.105 1.066l.143.016.15.006h11.423l.16-.007c.31-.027.56-.137.752-.329.16-.16.263-.344.309-.553l.02-.129.007-.134v-.288l-13.728-64.608-.042-.148c-.188-.574-.58-.902-1.178-.984l-.154-.015-.162-.005zm156.059 0h-10.752c-.843 0-1.29.397-1.34 1.19l-.004.154v64.512c0 .843.397 1.29 1.19 1.34l.154.004h10.752c.843 0 1.29-.397 1.34-1.19l.004-.154v-17.088c0-.47.215-.724.645-.763l.123-.005h8.544c.47 0 .724.215.763.645l.005.123v17.088c0 .843.397 1.29 1.19 1.34l.154.004h10.752c.843 0 1.29-.397 1.34-1.19l.004-.154v-64.512c0-.843-.397-1.29-1.19-1.34l-.154-.004h-10.752c-.843 0-1.29.397-1.34 1.19l-.004.154v35.904c0 .47-.215.724-.645.763l-.123.005h-8.544c-.47 0-.724-.215-.763-.645l-.005-.123v-35.904c0-.843-.397-1.29-1.19-1.34l-.154-.004zm-94.504 0h-25.248l-.153.005c-.695.043-1.086.39-1.172 1.041l-.014.145-.005.153v64.512l.005.153c.043.695.39 1.086 1.041 1.172l.145.014.153.005h10.752l.153-.005c.695-.043 1.086-.39 1.172-1.041l.014-.145.005-.153v-16.992l.005-.123c.032-.352.208-.56.528-.624l.112-.016.123-.005h2.304l.13.007a.776.776 0 01.638.423l.053.114.043.128 5.184 17.28.043.148c.187.574.58.902 1.177.984l.154.015.162.005h9.216l.16-.006c.31-.023.56-.117.752-.282.224-.192.336-.448.336-.768 0-.096-.008-.184-.024-.264l-.03-.114-.042-.102-5.121-16.815c-.132-.502.071-.753.609-.753 1.728-.256 2.944-1.056 3.648-2.4.616-1.176.963-2.72 1.04-4.63l.012-.416.004-.426v-32.352l-.006-.333c-.074-2.093-.856-3.854-2.346-5.283-1.407-1.35-3.084-2.093-5.032-2.232l-.347-.018-.333-.006zm54.712 0H212.68c-2.496 0-4.4.656-5.712 1.968-1.25 1.25-1.904 3.036-1.964 5.36l-.004.352v51.84c0 2.496.656 4.4 1.968 5.712 1.25 1.25 3.036 1.904 5.36 1.964l.352.004h18.624c2.496 0 4.4-.656 5.712-1.968 1.25-1.25 1.904-3.036 1.964-5.36l.004-.352v-11.616c0-.843-.397-1.29-1.19-1.34l-.154-.004h-7.488c-.843 0-1.29.397-1.34 1.19l-.004.154v6.432c0 .896-.256 1.6-.768 2.112-.465.465-1.09.72-1.872.762l-.24.006h-4.512c-.896 0-1.6-.256-2.112-.768-.465-.465-.72-1.09-.762-1.872l-.006-.24v-41.28c0-.896.256-1.6.768-2.112.465-.465 1.09-.72 1.872-.762l.24-.006h4.512c.896 0 1.6.256 2.112.768.465.465.72 1.09.762 1.872l.006.24v6.24c0 .843.397 1.29 1.19 1.34l.154.004h7.488c.843 0 1.29-.397 1.34-1.19l.004-.154V139.68c0-2.496-.656-4.4-1.968-5.712-1.25-1.25-3.036-1.904-5.36-1.964l-.352-.004zm111.576 0h-25.536l-.153.005c-.695.043-1.086.39-1.172 1.041l-.014.145-.005.153v64.512l.005.153c.043.695.39 1.086 1.041 1.172l.145.014.153.005h25.728l.333-.006c2.087-.07 3.784-.804 5.091-2.202 1.231-1.317 1.912-2.967 2.041-4.95l.017-.354.006-.36v-23.232l-.004-.372c-.067-2.95-.93-5.161-2.588-6.636-.32-.32-.32-.64 0-.96 1.578-1.578 2.435-3.636 2.572-6.174l.015-.366.005-.372V139.68l-.004-.353c-.06-2.323-.714-4.11-1.964-5.359-1.184-1.184-2.85-1.833-4.997-1.95l-.362-.014-.353-.004zm93.064 0h-9.6c-.843 0-1.29.397-1.34 1.19l-.004.154v3.072c0 12.16 1.888 22.048 5.664 29.664.192.256.224.608.096 1.056-3.392 7.872-4.992 18.112-4.8 30.72 0 .843.397 1.29 1.19 1.34l.154.004h9.6c.843 0 1.29-.397 1.34-1.19l.004-.154V194.4c0-3.84.32-7.552.96-11.136.64-3.584 1.92-6.88 3.84-9.888.384-.576.768-.576 1.152 0 1.92 3.008 3.2 6.304 3.84 9.888a62.81 62.81 0 01.953 10.179l.007.957v3.456c0 .843.397 1.29 1.19 1.34l.154.004h9.6c.843 0 1.29-.397 1.34-1.19l.004-.154v-3.072c0-12.16-1.888-22.048-5.664-29.664-.192-.256-.224-.608-.096-1.056 3.127-7.13 4.726-16.4 4.798-27.809l.002-.799v-2.976c0-.299-.39-.458-1.17-.478l-.174-.002h-9.6c-.843 0-1.29.397-1.34 1.19l-.004.154v3.456c0 3.84-.32 7.552-.96 11.136-.64 3.584-1.92 6.88-3.84 9.888-.384.576-.768.576-1.152 0-1.92-3.008-3.2-6.304-3.84-9.888a62.81 62.81 0 01-.953-10.179l-.007-.957v-3.456c0-.843-.397-1.29-1.19-1.34l-.154-.004zm-38.64 0H378.68l-.353.004c-2.323.06-4.11.714-5.359 1.964-1.184 1.184-1.833 2.85-1.95 4.997l-.014.362-.004.353v51.84l.004.353c.06 2.323.714 4.11 1.964 5.359 1.184 1.184 2.85 1.833 4.997 1.95l.362.014.353.004h18.624l.353-.004c2.323-.06 4.11-.714 5.359-1.964 1.184-1.184 1.833-2.85 1.95-4.997l.014-.362.004-.353v-51.84l-.004-.353c-.06-2.323-.714-4.11-1.964-5.359-1.184-1.184-2.85-1.833-4.997-1.95l-.362-.014-.353-.004zM28.691 105H13.84c-1.165 0-1.777.554-1.835 1.66l-.005.18v88.32c0 1.165.554 1.777 1.66 1.835l.18.005h9.989c1.165 0 1.777-.554 1.835-1.66l.005-.18v-36.274c0-.438.175-.68.525-.723.316-.04.525.116.627.467l.03.124 5.389 19.452c.247.99.844 1.513 1.79 1.571l.181.006h4.075c.99 0 1.63-.466 1.92-1.397l.051-.18 5.652-19.057c.175-.439.416-.636.722-.592.273.04.424.234.455.584l.005.139v35.88c0 1.165.554 1.777 1.661 1.835l.18.005h13.93c1.166 0 1.778-.554 1.836-1.66l.005-.18v-88.32c0-1.165-.554-1.777-1.66-1.835l-.18-.005H48.8c-1.072 0-1.756.466-2.052 1.397l-.05.18-7.36 35.354c-.088.439-.286.658-.592.658-.273 0-.494-.174-.662-.52l-.061-.138-7.229-35.354c-.247-.99-.883-1.513-1.906-1.572L28.69 105zm307.853 60.792c1.842 0 2.83.828 2.96 2.483l.012.195.004.202v17.856l-.004.202c-.066 1.72-.987 2.61-2.763 2.674l-.209.004h-6.432l-.123-.005c-.352-.032-.56-.208-.624-.528l-.016-.112-.005-.123v-22.08l.005-.123c.032-.352.208-.56.528-.624l.112-.016.123-.005h6.432zm55.384-23.616c.896 0 1.6.256 2.112.768.419.419.666.966.743 1.642l.019.23.006.24v41.28l-.006.24c-.043.782-.297 1.407-.762 1.872-.465.465-1.09.72-1.872.762l-.24.006h-4.512l-.24-.006c-.782-.043-1.407-.297-1.872-.762-.419-.419-.666-.966-.743-1.642l-.019-.23-.006-.24v-41.28l.006-.24c.043-.782.297-1.407.762-1.872.419-.419.966-.666 1.642-.743l.23-.019.24-.006h4.512zm-284.043 14.976c.168 0 .291.09.37.27l.035.097.027.113 3.862 19.991c.067.458-.125.705-.576.74l-.118.005h-7.584l-.116-.006c-.296-.03-.474-.177-.533-.444l-.017-.105-.006-.117v-.192l4.128-19.872.05-.113c.123-.245.282-.367.478-.367zm62.659-13.056c1.024 0 1.76.224 2.208.672.373.373.591.947.653 1.72l.014.238.005.25v20.16l-.005.25c-.034.895-.256 1.547-.667 1.958-.41.41-1.063.633-1.958.667l-.25.005h-6.336l-.123-.005c-.352-.032-.56-.208-.624-.528l-.016-.112-.005-.123v-24.384l.005-.123c.032-.352.208-.56.528-.624l.112-.016.123-.005h6.336zm166-2.016c.896 0 1.664.336 2.304 1.008.533.56.844 1.22.933 1.98l.02.231.007.237v6.912l-.007.222c-.049.807-.366 1.533-.953 2.178-.59.65-1.29 1-2.1 1.05l-.204.006H330.4l-.123-.005c-.352-.032-.56-.208-.624-.528l-.016-.112-.005-.123v-12.288l.005-.123c.032-.352.208-.56.528-.624l.112-.016.123-.005h6.144z" fill="#333"/></g></svg>
