<svg width="512" height="512" fill="none" xmlns="http://www.w3.org/2000/svg">
<style>@media (prefers-color-scheme:dark) {#fg{fill:#212121}#bg{fill:#fe0}}</style>
<mask id="a" style="mask-type:alpha" maskUnits="userSpaceOnUse" x="0" y="0" width="512" height="512"><circle cx="256" cy="256" r="256" fill="#000"/></mask>
<g mask="url(#a)"><circle id="bg" fill="#212121" cx="256" cy="256" r="256"/><path id="fg" fill="#fff" d="M130 138c-18.284 0-25 11.716-25 20v339c0 8.284 16.716 15 25 15 8.284 0 25-6.716 25-15V158c0-8.284-6.716-20-25-20zM196.002 168.852l-.002.192v154.912l.002.192.005.192.007.164v.008c.004.083.009.166.017.265l.002.029.008.104.014.15c.009.085.018.17.029.255l.021.16.018.125a11.66 11.66 0 00.209 1.043l.004.013c.043.172.09.342.142.51l.042.136.042.129c.054.163.112.324.18.502l.006.013c.06.156.124.31.211.506l.028.064.074.16.118.241.016.03.035.07.079.15.113.206.032.055.043.076.083.139.121.197.01.017.023.035.055.086.07.105.014.021c.043.065.088.129.132.193l.007.01.02.027.073.102.066.091.016.02c.048.065.097.129.147.193l.109.138.063.077.015.018c.107.13.217.258.331.383l.022.025c.117.129.238.255.374.392.126.125.255.247.387.367l.008.008c.133.119.269.236.408.35l.11.089.109.086.115.088.097.072.13.095.072.051.018.013.015.01c.136.095.274.187.415.276l.021.014.028.017.064.04.139.084.009.006.225.13.037.021.086.047.075.041.039.021.055.029.178.092.032.016.133.065.173.082.16.072c.077.034.153.066.23.098l.014.006.024.01.097.039.138.054c.082.032.163.062.245.091l.15.053.115.038a10.84 10.84 0 001.025.284l.127.028.147.03c.086.017.173.034.259.049l.145.024.139.021c.085.013.17.025.255.035l.16.019.134.014c.083.008.167.015.25.021l.172.012.074.004.056.002c.082.005.164.007.246.01l.181.003h220.966a11.06 11.06 0 0010.567-7.772 11.031 11.031 0 00-4.306-12.377L332.051 246.5l102.145-68.351a11.03 11.03 0 004.306-12.377A11.06 11.06 0 00427.935 158H206.969l-.181.004a8.076 8.076 0 00-.272.01l-.03.001-.074.004-.172.011c-.083.007-.167.014-.295.027l-.089.009-.16.02c-.085.009-.169.022-.282.038l-.112.017-.145.025c-.087.015-.173.031-.259.048l-.147.03-.127.028a11.378 11.378 0 00-1.025.284l-.115.038-.15.053c-.082.029-.163.06-.253.094l-.017.006-.113.044-.097.04-.024.01-.014.005-.06.026a6.249 6.249 0 00-.17.074l-.16.071-.089.042-.029.014-.055.026-.159.079-.006.002-.21.109-.023.013-.039.02-.075.041-.086.048-.056.03-.206.12-.036.022-.112.068-.064.04-.028.017-.021.015a9.632 9.632 0 00-.415.276l-.015.01-.018.012-.072.051-.13.095-.212.16-.109.086-.11.09c-.139.113-.275.23-.408.349l-.008.008a10.532 10.532 0 00-.773.772l-.01.011c-.114.126-.224.254-.331.384l-.032.038-.046.057-.109.138a8.93 8.93 0 00-.147.193l-.037.049-.045.062-.073.102-.02.028-.007.009-.132.193-.037.056-.047.07-.078.122-.01.016c-.041.065-.081.131-.131.214l-.021.036-.052.086-.063.111-.012.021a15.35 15.35 0 00-.118.215l-.015.028-.059.112-.035.07-.027.053c-.036.072-.072.145-.107.219l-.074.159-.048.108c-.067.152-.131.306-.191.462l-.012.03c-.062.161-.12.322-.174.485l-.042.13-.042.135c-.051.168-.099.338-.142.509l-.004.014a10.876 10.876 0 00-.213 1.073l-.014.095-.021.16-.03.267-.002.025-.011.113-.008.105-.004.045a8.683 8.683 0 00-.015.256l-.001.026-.006.138-.004.109v.03l-.001.053z"/></g>
</svg>
